<?xml version="1.0" encoding="UTF-8" standalone="no"?>
<svg width="28px" height="28px" viewBox="0 0 28 28" version="1.1" xmlns="http://www.w3.org/2000/svg" xmlns:xlink="http://www.w3.org/1999/xlink" xmlns:sketch="http://www.bohemiancoding.com/sketch/ns">
    <!-- Generator: Sketch 3.3.3 (12081) - http://www.bohemiancoding.com/sketch -->
    <title>add</title>
    <desc>Created with Sketch.</desc>
    <defs></defs>
    <g id="Page-1" stroke="none" stroke-width="1" fill="none" fill-rule="evenodd" sketch:type="MSPage">
        <g id="add" sketch:type="MSArtboardGroup" fill="#000000">
            <path d="M17,17 L17,27.0044225 C17,27.5542648 16.5490248,28 16.009222,28 L11.990778,28 C11.4435864,28 11,27.555163 11,27.0044225 L11,17 L0.995577499,17 C0.445735229,17 0,16.5490248 0,16.009222 L0,11.990778 C0,11.4435864 0.444836974,11 0.995577499,11 L11,11 L11,0.995577499 C11,0.445735229 11.4509752,0 11.990778,0 L16.009222,0 C16.5564136,0 17,0.444836974 17,0.995577499 L17,11 L27.0044225,11 C27.5542648,11 28,11.4509752 28,11.990778 L28,16.009222 C28,16.5564136 27.555163,17 27.0044225,17 L17,17 Z" id="Shape" sketch:type="MSShapeGroup"></path>
        </g>
    </g>
</svg>