<?xml version="1.0" encoding="UTF-8" standalone="no"?>
<svg width="40px" height="28px" viewBox="0 0 40 28" version="1.1" xmlns="http://www.w3.org/2000/svg" xmlns:xlink="http://www.w3.org/1999/xlink" xmlns:sketch="http://www.bohemiancoding.com/sketch/ns">
    <!-- Generator: Sketch 3.3.3 (12081) - http://www.bohemiancoding.com/sketch -->
    <title>Shape</title>
    <desc>Created with Sketch.</desc>
    <defs></defs>
    <g id="Page-1" stroke="none" stroke-width="1" fill="none" fill-rule="evenodd" sketch:type="MSPage">
        <g id="applicants" sketch:type="MSArtboardGroup" fill="#000000">
            <path d="M29,14 C31.76,14 33.98,11.76 33.98,9 C33.98,6.24 31.76,4 29,4 C26.24,4 24,6.24 24,9 C24,11.76 26.24,14 29,14 L29,14 Z M14,12 C17.31,12 19.98,9.31 19.98,6 C19.98,2.69 17.31,0 14,0 C10.69,0 8,2.69 8,6 C8,9.31 10.69,12 14,12 L14,12 Z M29,18 C25.33,18 18,19.84 18,23.5 L18,28 L40,28 L40,23.5 C40,19.84 32.67,18 29,18 L29,18 Z M14,16 C9.33,16 0,18.34 0,23 L0,28 L14,28 L14,23.5 C14,21.8 14.67,18.83 18.74,16.56 C17,16.19 15.31,16 14,16 L14,16 Z" id="Shape" sketch:type="MSShapeGroup"></path>
        </g>
    </g>
</svg>