<?xml version="1.0" encoding="UTF-8" standalone="no"?>
<svg width="28px" height="36px" viewBox="0 0 28 36" version="1.1" xmlns="http://www.w3.org/2000/svg" xmlns:xlink="http://www.w3.org/1999/xlink" xmlns:sketch="http://www.bohemiancoding.com/sketch/ns">
    <!-- Generator: Sketch 3.3.3 (12081) - http://www.bohemiancoding.com/sketch -->
    <title>bookmark</title>
    <desc>Created with Sketch.</desc>
    <defs></defs>
    <g id="Page-1" stroke="none" stroke-width="1" fill="none" fill-rule="evenodd" sketch:type="MSPage">
        <g id="bookmark" sketch:type="MSArtboardGroup">
            <path d="M4,0 C1.79,0 0.02,1.79 0.02,4 L0.00125108957,33.9982567 C0.000560131881,35.103789 0.823496636,35.6470729 1.83025551,35.2156048 L14,30 L26.1697445,35.2156048 C27.1805667,35.6488143 28,35.1107383 28,33.9982567 L28,4 C28,1.79 26.21,0 24,0 L4,0 Z M24,30 L14,25.65 L4,30 L4,4 L24,4 L24,30 L24,30 Z" id="border" fill="#000000" sketch:type="MSShapeGroup"></path>
            <path d="M25,31 L14,26.3153846 L3,31 L3,3 L25,3 L25,31 L25,31 Z" id="isi" fill="#4990E2" sketch:type="MSShapeGroup"></path>
        </g>
    </g>
</svg>