<?xml version="1.0" encoding="UTF-8" standalone="no"?>
<svg width="50px" height="58px" viewBox="0 0 50 58" version="1.1" xmlns="http://www.w3.org/2000/svg" xmlns:xlink="http://www.w3.org/1999/xlink" xmlns:sketch="http://www.bohemiancoding.com/sketch/ns">
    <!-- Generator: Sketch 3.3.3 (12081) - http://www.bohemiancoding.com/sketch -->
    <title>boss</title>
    <desc>Created with Sketch.</desc>
    <defs></defs>
    <g id="Page-1" stroke="none" stroke-width="1" fill="none" fill-rule="evenodd" sketch:type="MSPage">
        <g id="boss" sketch:type="MSArtboardGroup" fill="#505070">
            <path d="M49.8914239,53.4643668 C49.5707567,54.6920343 48.5987026,55.6110254 47.3542322,55.8644015 C42.5633226,56.8386929 34.7828694,58 24.9236077,58 C14.8542536,58 7.24066796,56.8588021 2.62667823,55.9016035 C1.38120258,55.6432001 0.414174666,54.7171708 0.102554445,53.484476 C-0.209065776,52.2507758 0.201066644,50.9758516 1.17513114,50.1553957 C3.18055805,48.4652163 5.64537347,47.1018116 8.48111748,46.0742307 C9.56073076,43.8632227 11.6797483,42.3560371 13.3896386,41.975973 C14.2591595,41.781919 14.9949853,41.9086071 15.5237345,42.2977204 C15.5760063,41.7165641 15.5378076,41.0630146 15.3468146,40.3913669 C14.8954679,39.5347144 12.3361612,34.5456184 11.9451281,30.8384849 C9.61199731,29.1322181 9.486344,24.8881685 9.486344,24.0043686 C9.486344,22.7927884 10.2020653,21.9401578 10.7750444,21.3720725 C10.5317796,20.8703476 10.3066088,20.5878131 10.1005374,20.3314206 C9.84420464,20.0106787 9.55369418,19.6477074 9.41195724,19.0655456 C7.9815199,13.1463985 10.555905,8.6278582 17.0647467,5.63158533 C17.2024628,5.19420993 17.2597607,4.06206119 17.2959488,3.36024963 C17.3914453,1.48305452 17.4668373,0 18.7806684,0 C19.0118705,0 19.3616893,0.0713877091 19.7105029,0.409222502 C21.8234891,2.45634047 26.9803011,3.76545029 30.0623256,4.54870417 C31.0685574,4.80409118 31.8636915,5.00618878 32.3602734,5.1821444 C38.1162005,7.22624599 41.4093226,12.3148826 40.7488887,18.1455491 C40.5609114,19.8176302 40.1407267,20.681321 39.8632842,21.2534281 C39.7888974,21.4062581 39.7044584,21.5802028 39.6934009,21.6465632 C39.6732964,21.7541475 39.6371082,21.8567045 39.5858417,21.9502124 C39.9959741,22.4730519 40.3528295,23.149727 40.3528295,24.0043686 C40.3528295,24.8720811 40.2281814,29.0568085 37.8960559,30.823403 C37.5110541,34.5094219 34.9688363,39.468354 34.4913537,40.3722632 C34.3094077,41.1344024 34.293324,41.8593395 34.3697213,42.4827251 C34.4692387,42.3781572 34.585845,42.2886712 34.7275819,42.2333709 C35.9328485,41.757788 37.2697998,41.9055907 38.5906674,42.6576753 C39.9376709,43.4228309 41.0956919,44.7540608 41.6264515,46.0521106 C44.4360596,47.0585768 46.8717235,48.4280142 48.8540302,50.1383029 C49.8130163,50.9647915 50.211086,52.2397157 49.8914239,53.4643668 L49.8914239,53.4643668 Z M24.9236077,55.9890786 C26.0454404,55.9890786 27.1341008,55.9699749 28.1996409,55.941822 L26.8787732,53.6644535 C26.3359509,54.0053047 25.7167314,54.1772385 25.0965066,54.1772385 C24.4662296,54.1772385 23.8369578,53.997261 23.2881041,53.6433388 L21.9521581,55.9478547 C22.9211964,55.9699749 23.9012923,55.9890786 24.9236077,55.9890786 L24.9236077,55.9890786 Z M29.3124266,46.3165468 C30.9408936,45.4267141 32.0174912,44.7409899 32.731202,44.2241831 C32.549256,43.7093872 32.4065139,43.1051053 32.3472055,42.4284303 C30.0231218,44.2543469 27.4296374,45.5755222 26.6706913,45.5755222 C26.469646,45.5755222 26.322883,45.518211 26.2052715,45.4719598 C26.0313673,45.4035885 25.6232453,45.2437202 25.0844439,45.2437202 C24.5848463,45.2437202 24.2340223,45.3905175 24.0651442,45.4619052 C23.9515536,45.5101673 23.793733,45.5755222 23.580625,45.5755222 C21.9159699,45.5755222 19.6009332,44.0854295 17.5261457,42.4133484 C17.4799053,42.9874664 17.3472154,43.534437 17.1702955,44.0572766 C17.8749593,44.5881598 18.9998078,45.3251625 20.8152469,46.3165468 C23.4750762,47.768432 26.6525973,47.768432 29.3124266,46.3165468 L29.3124266,46.3165468 Z M22.1582295,49.9080524 L24.1857714,51.8083731 C24.6964265,52.2879778 25.4965868,52.2879778 26.0082471,51.8083731 L28.031768,49.9110687 C27.3301199,49.6285343 26.7782506,49.4133657 26.5309649,49.3178469 C25.5518742,49.4515732 24.5607209,49.4495623 23.5816302,49.315836 C23.3373602,49.4163821 22.8186633,49.6315507 22.1582295,49.9080524 L22.1582295,49.9080524 Z M8.65301122,48.1625726 C6.26157733,49.08458 4.17171139,50.2599636 2.4698629,51.6927451 C2.08486114,52.0185143 1.9280458,52.5031464 2.05168867,52.9918003 C2.1743263,53.4784433 2.54223921,53.8303545 3.0348002,53.9329115 C6.71292403,54.6960562 12.3713441,55.5677906 19.6723043,55.8704343 L21.7531232,52.283956 L20.1337033,50.7657103 C18.4791004,51.4745601 16.7239749,52.2517812 15.9851334,52.6589928 C15.8353547,52.7414406 15.6674819,52.7836699 15.499609,52.7836699 C15.4272327,52.7836699 15.3558616,52.7766317 15.2854958,52.7605443 C13.6741177,52.4096386 9.99599385,49.6938892 8.65301122,48.1625726 L8.65301122,48.1625726 Z M14.2310132,43.87931 C14.0762083,43.8853428 13.7283999,43.9195285 13.2066873,44.1447517 C12.2406647,44.5620179 10.9489486,45.5393256 10.2573527,46.987189 C11.1469782,47.9403658 14.0550985,50.1553957 15.4010968,50.6953281 C16.5711805,50.1061281 18.7836841,49.149935 20.5176998,48.4159487 C20.2935343,48.3133917 20.0713792,48.2007801 19.8522399,48.0821357 C15.9187885,45.9334662 14.6592397,44.7208806 14.2310132,43.87931 L14.2310132,43.87931 Z M38.7655768,17.7071682 C39.316441,11.9297911 35.4935645,8.42877698 31.6867717,7.07743781 C31.2786497,6.93164601 30.485526,6.73055387 29.5677542,6.49728699 C26.5078446,5.72107134 22.0747957,4.59495536 19.3466109,2.69564011 C19.3285168,2.96108174 19.3154489,3.23356158 19.3033862,3.46280662 C19.204874,5.38826385 19.1274715,6.90751495 18.0951039,7.37203779 C12.5985253,9.84346017 10.3930583,13.1705296 11.2032709,17.7916269 C11.7380514,17.3271041 12.4366838,17.0164167 13.1594417,16.702713 C13.5625375,16.5277628 14.012879,16.3327035 14.50544,16.0863656 C15.202062,15.7384762 15.8092188,15.3232209 16.4515586,14.8838346 C17.7985621,13.9618272 19.1928113,13.0086504 21.3540483,12.7603016 C21.8013741,12.713045 22.2235692,12.9583774 22.3964682,13.3726272 C22.5683619,13.7848661 22.4467295,14.2624599 22.0979159,14.5429834 C20.7619699,15.6178209 20.5448409,17.2527 20.8162521,18.494444 C24.4803028,16.2110427 27.5462436,16.7710843 30.2784493,17.2697928 C32.1381184,17.6086331 33.8952543,17.9303805 35.686568,17.2949294 C36.7038572,16.933969 37.8930402,17.1038918 38.7655768,17.7071682 L38.7655768,17.7071682 Z M35.9278224,30.2060501 C35.943906,29.8541389 36.1429408,29.5364133 36.4525506,29.3685013 C37.7513033,28.6636734 38.3423765,26.0937159 38.3423765,24.0043686 C38.3423765,23.4533761 37.8457946,22.9828205 37.408521,22.5685707 C37.3170454,22.4821011 37.2316012,22.4016642 37.1572144,22.3252492 C36.9240018,22.0909769 36.8214687,21.7581694 36.8817823,21.4334056 C37.0024095,20.7848834 37.4577771,20.3555517 38.0578973,20.2912022 C38.0488503,19.8950507 37.932244,19.5753142 37.665859,19.3742221 C37.3220715,19.1148132 36.7832701,19.0394037 36.3590645,19.1902228 C34.0621219,20.0056514 31.9561724,19.6205599 29.917573,19.2485395 C27.0737872,18.7297218 24.3908376,18.2390569 20.9439159,20.8452111 C20.7147242,21.0201612 20.4232085,21.0865216 20.1397346,21.0292104 C19.8582712,20.9729046 19.6140012,20.7979544 19.4692486,20.5496056 C18.774637,19.3581347 18.4137607,17.4336829 18.9957869,15.6339083 C18.5223252,15.9033718 18.0669576,16.2150646 17.5864593,16.5428448 C16.9159732,17.0013348 16.2233721,17.4759123 15.4051177,17.8851348 C14.8763686,18.1495709 14.3918494,18.3597122 13.959602,18.5477334 C12.5251438,19.1701135 12.2848946,19.33702 12.2657953,19.9141545 C12.472872,20.2560111 12.6940218,20.6863483 12.9101455,21.2634827 C13.0488668,21.6314813 12.9594016,22.0467366 12.6829643,22.3252492 C12.6075723,22.4016642 12.5221281,22.4821011 12.4316577,22.5685707 C11.9933789,22.9828205 11.496797,23.4533761 11.496797,24.0043686 C11.496797,25.7780012 11.9933789,28.6676952 13.3594818,29.3544249 C13.6841699,29.5173095 13.8952675,29.8420733 13.9123564,30.2050446 C14.0631403,33.4295571 16.6174209,38.4789807 17.1029453,39.4120482 C21.0152869,42.9271388 22.8458044,43.4751148 23.4217992,43.5525353 C23.7555344,43.4218254 24.330524,43.2327988 25.0844439,43.2327988 C25.808207,43.2327988 26.3842018,43.3986998 26.7219579,43.5183497 C27.6035416,43.1825258 30.5558918,41.6200399 32.7100923,39.4391956 C33.1564128,38.5885759 35.7760332,33.4647482 35.9278224,30.2060501 L35.9278224,30.2060501 Z M37.5975036,44.405166 C37.1411308,44.1467626 36.4927597,43.8883592 35.8293102,44.0029817 C35.3417753,44.839525 34.0209076,46.0370287 30.2754336,48.0821357 C30.068357,48.1947473 29.8592699,48.3003207 29.6481723,48.3988559 C31.2414563,49.0574326 33.2378362,49.9281616 34.5838345,50.6732079 C36.1409304,50.1574066 38.9887371,48.3254572 39.840164,46.9821617 C39.5667424,46.1607004 38.713305,45.0396117 37.5975036,44.405166 L37.5975036,44.405166 Z M47.5412043,51.6605703 C45.8705179,50.2187397 43.8178453,49.0503944 41.4656152,48.1484961 C40.040204,50.2519199 36.2977457,52.3774638 34.6642526,52.7354078 C34.4169669,52.7897027 34.1546028,52.7484788 33.9354634,52.6177689 C32.9875348,52.0557164 31.4847211,51.3659704 30.0673518,50.7586721 L28.4157646,52.3070816 L30.4714528,55.852336 C37.5341743,55.5295831 43.1956101,54.6578487 46.9531468,53.8936985 C47.4477183,53.7931525 47.8186468,53.4432521 47.9463106,52.9566092 C48.0719639,52.4719771 47.92118,51.9883505 47.5412043,51.6605703 L47.5412043,51.6605703 Z M30.9951758,25.8252579 C31.009249,25.8926237 31.0353849,25.9549623 31.0353849,26.02635 C31.0353849,26.5813643 30.5860486,27.0318107 30.0301584,27.0318107 L29.8301183,27.0318107 C29.2752333,27.0318107 28.8248918,26.5813643 28.8248918,26.02635 C28.8248918,25.9549623 28.8510277,25.8926237 28.8651008,25.8252579 L27.5894684,25.8252579 C27.0335781,25.8252579 26.5842419,25.3748115 26.5842419,24.8197972 C26.5842419,24.2647829 27.0335781,23.8143365 27.5894684,23.8143365 L32.4889424,23.8143365 C33.0438275,23.8143365 33.494169,24.2647829 33.494169,24.8197972 C33.494169,25.3748115 33.0438275,25.8252579 32.4889424,25.8252579 L30.9951758,25.8252579 L30.9951758,25.8252579 Z M27.853843,36.4992286 C28.066951,37.0059808 27.8397698,37.587137 27.3361513,37.8063275 C27.2456809,37.8465459 26.4093324,38.1924244 24.9236077,38.1924244 C23.4368776,38.1924244 22.6005292,37.8465459 22.5100588,37.8063275 C22.0024194,37.5841207 21.7692068,36.9919043 21.9913619,36.4831412 C22.213517,35.9733726 22.8066006,35.7421167 23.3152452,35.963318 C23.3162504,35.963318 23.8771668,36.181503 24.9236077,36.181503 C25.9780903,36.181503 26.5390067,35.9603016 26.545038,35.9582907 C27.0566983,35.7521713 27.6417402,35.9924764 27.853843,36.4992286 L27.853843,36.4992286 Z M22.284888,25.8252579 L20.9368793,25.8252579 C20.9509524,25.8926237 20.9770883,25.9549623 20.9770883,26.02635 C20.9770883,26.5813643 20.5267469,27.0318107 19.9718618,27.0318107 L19.7718217,27.0318107 C19.2159315,27.0318107 18.7665952,26.5813643 18.7665952,26.02635 C18.7665952,25.9549623 18.7927311,25.8926237 18.8068043,25.8252579 L17.3844088,25.8252579 C16.8295237,25.8252579 16.3791822,25.3748115 16.3791822,24.8197972 C16.3791822,24.2647829 16.8295237,23.8143365 17.3844088,23.8143365 L22.284888,23.8143365 C22.8397731,23.8143365 23.2901146,24.2647829 23.2901146,24.8197972 C23.2901146,25.3748115 22.8397731,25.8252579 22.284888,25.8252579 L22.284888,25.8252579 Z" id="Shape" sketch:type="MSShapeGroup"></path>
        </g>
    </g>
</svg>