<?xml version="1.0" encoding="UTF-8" standalone="no"?>
<svg width="36px" height="36px" viewBox="0 0 36 36" version="1.1" xmlns="http://www.w3.org/2000/svg" xmlns:xlink="http://www.w3.org/1999/xlink" xmlns:sketch="http://www.bohemiancoding.com/sketch/ns">
    <!-- Generator: Sketch 3.3.3 (12081) - http://www.bohemiancoding.com/sketch -->
    <title>check-box</title>
    <desc>Created with Sketch.</desc>
    <defs></defs>
    <g id="Page-1" stroke="none" stroke-width="1" fill="none" fill-rule="evenodd" sketch:type="MSPage">
        <g id="check-box" sketch:type="MSArtboardGroup">
            <path d="M32,4 L32,32 L4,32 L4,4 L32,4 L32,4 Z M32,0 L4,0 C1.79,0 0,1.79 0,4 L0,32 C0,34.21 1.79,36 4,36 L32,36 C34.21,36 36,34.21 36,32 L36,4 C36,1.79 34.21,0 32,0 L32,0 Z" id="border" fill="#000000" sketch:type="MSShapeGroup"></path>
            <path d="M32,0 L4,0 C1.79,0 0,1.79 0,4 L0,32 C0,34.21 1.79,36 4,36 L32,36 C34.21,36 36,34.21 36,32 L36,4 C36,1.79 34.21,0 32,0 L32,0 Z M14,28 L4,18 L6.83,15.17 L14,22.34 L29.17,7.17 L32,10 L14,28 L14,28 Z" id="isi" fill="#F30707" sketch:type="MSShapeGroup"></path>
        </g>
    </g>
</svg>