<?xml version="1.0" encoding="UTF-8" standalone="no"?>
<svg width="36px" height="40px" viewBox="0 0 36 40" version="1.1" xmlns="http://www.w3.org/2000/svg" xmlns:xlink="http://www.w3.org/1999/xlink" xmlns:sketch="http://www.bohemiancoding.com/sketch/ns">
    <!-- Generator: Sketch 3.3.3 (12081) - http://www.bohemiancoding.com/sketch -->
    <title>deadline</title>
    <desc>Created with Sketch.</desc>
    <defs></defs>
    <g id="Page-1" stroke="none" stroke-width="1" fill="none" fill-rule="evenodd" sketch:type="MSPage">
        <g id="deadline" sketch:type="MSArtboardGroup" fill="#000000">
            <path d="M32,4 L30,4 L30,0 L26,0 L26,4 L10,4 L10,0 L6,0 L6,4 L4,4 C1.79,4 0.02,5.79 0.02,8 L0,36 C0,38.21 1.79,40 4,40 L32,40 C34.21,40 36,38.21 36,36 L36,8 C36,5.79 34.21,4 32,4 L32,4 Z M32,36 L4,36 L4,14 L32,14 L32,36 L32,36 Z M8,18 L18,18 L18,28 L8,28 L8,18 Z" id="Shape" sketch:type="MSShapeGroup"></path>
        </g>
    </g>
</svg>