<?xml version="1.0" encoding="UTF-8" standalone="no"?>
<svg width="52px" height="52px" viewBox="0 0 52 52" version="1.1" xmlns="http://www.w3.org/2000/svg" xmlns:xlink="http://www.w3.org/1999/xlink" xmlns:sketch="http://www.bohemiancoding.com/sketch/ns">
    <!-- Generator: Sketch 3.3.3 (12081) - http://www.bohemiancoding.com/sketch -->
    <title>edit-line</title>
    <desc>Created with Sketch.</desc>
    <defs></defs>
    <g id="Page-1" stroke="none" stroke-width="1" fill="none" fill-rule="evenodd" sketch:type="MSPage">
        <g id="edit-line" sketch:type="MSArtboardGroup" fill="#505070">
            <path d="M50.53785,11.4264935 L47.6575395,14.3068783 L14.5484649,47.4248004 C14.4414905,47.5318519 14.3155207,47.6038865 14.1825525,47.6519096 C14.1735547,47.654911 14.1675561,47.6639153 14.1585583,47.6669168 L1.31563255,51.9489755 C1.21165743,51.9829918 1.1056828,52 0.99970817,52 C0.738770631,52 0.482831897,51.8979509 0.292877367,51.7068591 C0.0249415038,51.4397306 -0.0680362397,51.0425397 0.0509352816,50.683367 L4.33191053,37.8381914 C4.33490981,37.8291871 4.34390765,37.8231842 4.34690694,37.8141799 C4.39489545,37.6811159 4.46687822,37.5540548 4.57385261,37.4480038 L34.8286104,7.18445406 L34.8286104,7.18445406 L34.8296102,7.18445406 L37.6829271,4.33008177 L40.5362441,1.47570948 C41.4870165,0.523251563 42.7527136,0 44.0973917,0 C45.4420698,0 46.7067671,0.523251563 47.6575395,1.47570948 L50.53785,4.35609428 C52.4873833,6.30503127 52.4873833,9.47755652 50.53785,11.4264935 L50.53785,11.4264935 Z M12.7009072,44.1632323 L13.8416341,45.3037807 L42.6837301,16.454911 L39.8164164,13.5875325 L12.7009072,40.7095719 L12.7009072,44.1632323 L12.7009072,44.1632323 Z M5.57061401,48.4222799 L3.57709121,46.4283213 L2.58032981,49.418759 L5.57061401,48.4222799 L5.57061401,48.4222799 Z M4.28392201,44.3073016 L7.69110642,47.7149399 L11.9910771,46.2812506 L10.9943157,45.283771 C10.8073605,45.0966811 10.7013858,44.8425589 10.7013858,44.5774315 L10.7013858,41.2948533 L7.42117104,41.2948533 C7.15523469,41.2948533 6.90129548,41.1898028 6.71434023,41.0027128 L5.71757883,40.0052333 L4.28392201,44.3073016 L4.28392201,44.3073016 Z M6.69434502,38.1543434 L7.83507196,39.2948918 L11.2872456,39.2948918 L38.4027548,12.1728523 L35.5354412,9.30547379 L6.69434502,38.1543434 L6.69434502,38.1543434 Z M36.9491028,7.89179413 L40.5222475,11.4655123 C40.5232472,11.4655123 40.5232472,11.4655123 40.5232472,11.4665127 L40.524247,11.4665127 L44.0973917,15.0412314 L45.5370471,13.6005387 L41.9629026,10.0248196 L38.3897579,6.45110149 L36.9491028,7.89179413 L36.9491028,7.89179413 Z M49.1241884,5.76977393 L46.2438779,2.88938913 C45.0971524,1.74183742 43.097631,1.74083694 41.9499057,2.88938913 L39.8034196,5.03642136 L45.0271691,10.2619336 L46.9507087,12.1858586 L49.1241884,10.0128139 C50.2939084,8.84225108 50.2939084,6.93933622 49.1241884,5.76977393 L49.1241884,5.76977393 Z" id="Shape" sketch:type="MSShapeGroup"></path>
        </g>
    </g>
</svg>