<?xml version="1.0" encoding="UTF-8" standalone="no"?>
<svg width="40px" height="40px" viewBox="0 0 40 40" version="1.1" xmlns="http://www.w3.org/2000/svg" xmlns:xlink="http://www.w3.org/1999/xlink" xmlns:sketch="http://www.bohemiancoding.com/sketch/ns">
    <!-- Generator: Sketch 3.3.3 (12081) - http://www.bohemiancoding.com/sketch -->
    <title>established</title>
    <desc>Created with Sketch.</desc>
    <defs></defs>
    <g id="Page-1" stroke="none" stroke-width="1" fill="none" fill-rule="evenodd" sketch:type="MSPage">
        <g id="established" sketch:type="MSArtboardGroup" fill="#000000">
            <path d="M20,0 C8.95,0 0,8.95 0,20 C0,31.05 8.95,40 20,40 C31.05,40 40,31.05 40,20 C40,8.95 31.05,0 20,0 L20,0 Z M18,35.86 C10.11,34.88 4,28.16 4,20 C4,18.77 4.15,17.57 4.42,16.42 L14,26 L14,28 C14,30.21 15.79,32 18,32 L18,35.86 L18,35.86 Z M31.79,30.79 C31.28,29.17 29.78,28 28,28 L26,28 L26,22 C26,20.9 25.1,20 24,20 L12,20 L12,16 L16,16 C17.1,16 18,15.1 18,14 L18,10 L22,10 C24.21,10 26,8.21 26,6 L26,5.17 C31.86,7.54 36,13.28 36,20 C36,24.16 34.4,27.94 31.79,30.79 L31.79,30.79 Z" id="Shape" sketch:type="MSShapeGroup"></path>
        </g>
    </g>
</svg>