<?xml version="1.0" encoding="UTF-8" standalone="no"?>
<svg width="35px" height="35px" viewBox="0 0 35 35" version="1.1" xmlns="http://www.w3.org/2000/svg" xmlns:xlink="http://www.w3.org/1999/xlink" xmlns:sketch="http://www.bohemiancoding.com/sketch/ns">
    <!-- Generator: Sketch 3.3.3 (12081) - http://www.bohemiancoding.com/sketch -->
    <title>facebook-circle</title>
    <desc>Created with Sketch.</desc>
    <defs></defs>
    <g id="Page-1" stroke="none" stroke-width="1" fill="none" fill-rule="evenodd" sketch:type="MSPage">
        <g id="facebook-circle" sketch:type="MSArtboardGroup" fill="#3B5998">
            <path d="M17.5,0 C7.83489583,0 0,7.83489583 0,17.5 C0,27.1651042 7.83489583,35 17.5,35 C27.1651042,35 35,27.1651042 35,17.5 C35,7.83489583 27.1651042,0 17.5,0 L17.5,0 Z M21.6453125,12.0932292 L19.0148437,12.0932292 C18.703125,12.0932292 18.3567708,12.5033854 18.3567708,13.0484375 L18.3567708,14.9479167 L21.6471354,14.9479167 L21.1494792,17.6567708 L18.3567708,17.6567708 L18.3567708,25.7888021 L15.2523437,25.7888021 L15.2523437,17.6567708 L12.4359375,17.6567708 L12.4359375,14.9479167 L15.2523437,14.9479167 L15.2523437,13.3546875 C15.2523437,11.06875 16.8382812,9.21119792 19.0148437,9.21119792 L21.6453125,9.21119792 L21.6453125,12.0932292 L21.6453125,12.0932292 Z" id="Shape" sketch:type="MSShapeGroup"></path>
        </g>
    </g>
</svg>