<?xml version="1.0" encoding="UTF-8" standalone="no"?>
<svg width="54px" height="52px" viewBox="0 0 54 52" version="1.1" xmlns="http://www.w3.org/2000/svg" xmlns:xlink="http://www.w3.org/1999/xlink" xmlns:sketch="http://www.bohemiancoding.com/sketch/ns">
    <!-- Generator: Sketch 3.3.3 (12081) - http://www.bohemiancoding.com/sketch -->
    <title>filter-search</title>
    <desc>Created with Sketch.</desc>
    <defs></defs>
    <g id="Page-1" stroke="none" stroke-width="1" fill="none" fill-rule="evenodd" sketch:type="MSPage">
        <g id="filter-search" sketch:type="MSArtboardGroup" fill="#505070">
            <path d="M48,41.898 L48,51 C48,51.552 47.552,51.999 47,51.999 C46.448,51.999 46,51.552 46,51 L46,41.898 C42.616,41.408 40,38.517 40,35 C40,31.482 42.616,28.591 46,28.101 L46,1 C46,0.447 46.448,0 47,0 C47.552,0 48,0.447 48,1 L48,28.101 C51.384,28.591 54,31.482 54,35 C54,38.517 51.384,41.408 48,41.898 L48,41.898 Z M47,30 C44.243,30 42,32.243 42,35 C42,37.756 44.243,39.999 47,39.999 C49.757,39.999 52,37.756 52,35 C52,32.243 49.757,30 47,30 L47,30 Z M28,19.899 L28,51 C28,51.552 27.552,51.999 27,51.999 C26.448,51.999 26,51.552 26,51 L26,19.899 C22.616,19.408 20,16.517 20,13 C20,9.482 22.616,6.591 26,6.101 L26,1 C26,0.447 26.448,0 27,0 C27.552,0 28,0.447 28,1 L28,6.101 C31.384,6.591 34,9.482 34,13 C34,16.517 31.384,19.408 28,19.899 L28,19.899 Z M27,8 C24.243,8 22,10.243 22,13 C22,15.756 24.243,18 27,18 C29.757,18 32,15.756 32,13 C32,10.243 29.757,8 27,8 L27,8 Z M8,31.898 L8,51 C8,51.552 7.552,51.999 6.999,51.999 C6.447,51.999 6,51.552 6,51 L6,31.898 C2.616,31.408 -8.8817842e-16,28.517 -8.8817842e-16,25 C-8.8817842e-16,21.482 2.616,18.591 6,18.101 L6,1 C6,0.447 6.447,0 6.999,0 C7.552,0 8,0.447 8,1 L8,18.101 C11.384,18.591 14,21.482 14,25 C14,28.517 11.384,31.408 8,31.898 L8,31.898 Z M6.999,20 C4.243,20 2,22.243 2,25 C2,27.756 4.243,30 6.999,30 C9.756,30 12,27.756 12,25 C12,22.243 9.756,20 6.999,20 L6.999,20 Z" id="Shape" sketch:type="MSShapeGroup"></path>
        </g>
    </g>
</svg>