<?xml version="1.0" encoding="UTF-8" standalone="no"?>
<svg width="56px" height="56px" viewBox="0 0 56 56" version="1.1" xmlns="http://www.w3.org/2000/svg" xmlns:xlink="http://www.w3.org/1999/xlink" xmlns:sketch="http://www.bohemiancoding.com/sketch/ns">
    <g id="Page-1" stroke="none" stroke-width="1" fill="none" fill-rule="evenodd" sketch:type="MSPage">
        <g id="gear" sketch:type="MSArtboardGroup" fill="#505070">
            <path d="M55.551458,12.4845961 L53.2286132,14.0181732 C53.1207133,15.1810943 52.8249876,16.2930625 52.3484298,17.3350957 L53.5882794,19.8127968 C53.7801015,20.19744 53.7041719,20.6620089 53.4004537,20.9667262 L50.8887841,23.4783958 C50.586065,23.7811149 50.121496,23.8590426 49.7358538,23.6652225 L47.2581527,22.4263719 C46.2151204,22.9029297 45.1031522,23.1976563 43.9412302,23.3055562 L42.4076531,25.628401 C42.2198274,25.9141359 41.9031212,26.0779839 41.5734271,26.0779839 C41.4875068,26.0779839 41.4005875,26.065995 41.3146672,26.0440154 L37.8838504,25.1238691 C37.468236,25.012972 37.1705123,24.6483103 37.1445364,24.2187089 L36.9786902,21.4482794 C36.5021324,21.1105927 36.0605421,20.7379385 35.6609129,20.3383093 C35.2602846,19.9386801 34.8886295,19.4970898 34.5509428,19.0205319 L31.7805132,18.8546858 C31.3509118,18.8287099 30.9862502,18.5309861 30.8753531,18.1153718 L29.9552068,14.684555 C29.8443097,14.2689406 30.0111549,13.8293484 30.3698221,13.5925681 L32.693666,12.057992 C32.8015659,10.89607 33.0962924,9.78410173 33.5728503,8.74206855 L32.3339997,6.26436742 C32.1421777,5.87872523 32.2171082,5.41515534 32.5218254,5.11043807 L35.033495,2.59876846 C35.3372132,2.29604933 35.8017822,2.22011978 36.1864253,2.4119418 L38.6641265,3.65079236 C39.7061596,3.17423453 40.8181279,2.87950798 41.9810489,2.77160809 L43.514626,0.447764215 C43.7514063,0.089096995 44.1919976,-0.0757500558 44.6066129,0.033148905 L48.0384287,0.95329517 C48.4540431,1.06419228 48.7517669,1.42885393 48.7767437,1.85845534 L48.9435889,4.62888487 C49.4191477,4.96657155 49.861737,5.33922579 50.2613662,5.73885501 C50.6619945,6.13848422 51.0326506,6.5800745 51.3703373,7.05663234 L54.1417659,7.22247846 C54.5703682,7.24845436 54.9350299,7.54517905 55.045927,7.96179251 L55.9660733,11.3926093 C56.0769704,11.8082237 55.9101252,12.2478158 55.551458,12.4845961 Z M53.302045,9.1736681 L50.757406,9.02080993 C50.4387017,9.00282661 50.1479715,8.83198512 49.9751318,8.56123633 C49.6434396,8.04171835 49.2637918,7.56715866 48.8481774,7.15154428 C48.431564,6.73493082 47.9570043,6.35528307 47.4374863,6.02359082 C47.1677366,5.85175026 46.9968951,5.56102001 46.9779127,5.24131664 L46.8250545,2.69667762 L44.7849474,2.15018467 L43.3752553,4.28420467 C43.1994185,4.55095717 42.9066901,4.71780237 42.5869867,4.73178939 C41.3521325,4.78673841 40.1852151,5.09645105 39.1192042,5.65093658 C38.8354675,5.79879939 38.4987799,5.80179661 38.2110468,5.65892916 L35.9361575,4.52098498 L34.4425433,6.01459916 L35.5804875,8.28948847 C35.723355,8.57622243 35.7213568,8.91390911 35.573494,9.19764585 C35.0180094,10.2636568 34.7082968,11.4305741 34.6533478,12.6644293 C34.6393607,12.9841327 34.4725155,13.2778601 34.205763,13.453697 L32.071743,14.863389 L32.618236,16.9034962 L35.162875,17.0553553 C35.4825784,17.0743377 35.7733086,17.2451792 35.9451492,17.5149289 C36.2778405,18.0354459 36.6574883,18.5100056 37.0731026,18.92562 C37.4897161,19.3422335 37.9632767,19.7208821 38.4837938,20.0535735 C38.7535435,20.225414 38.924385,20.5161443 38.9433674,20.8358476 L39.0952265,23.3804867 L41.1363327,23.9269796 L42.5450257,21.7929596 C42.7208625,21.5262071 43.01459,21.3593619 43.3342934,21.3453749 C44.5691476,21.2904259 45.7350659,20.9807132 46.8020759,20.4252286 C47.0858126,20.2783649 47.4225002,20.2753677 47.7092342,20.4182351 L49.9851225,21.5561793 L51.4777377,20.0625651 L50.3397935,17.7876758 C50.196926,17.5009418 50.1999232,17.1632552 50.3477861,16.8795184 C50.9022716,15.8135075 51.2119842,14.6465902 51.2669332,13.4117359 C51.2819193,13.0930316 51.4477655,12.7993041 51.715517,12.6234673 L53.849537,11.2137752 L53.302045,9.1736681 Z M42.9611396,18.0334478 C41.626378,18.0334478 40.3725413,17.5139298 39.4284173,16.5708049 C37.481224,14.6226124 37.481224,11.4545518 39.4284173,9.50635942 C40.3725413,8.56323448 41.626378,8.0437165 42.9611396,8.0437165 C44.2949021,8.0437165 45.5487387,8.56323448 46.4928628,9.50635942 C48.4410552,11.4545518 48.4410552,14.6226124 46.4928628,16.5708049 C45.5487387,17.5139298 44.2949021,18.0334478 42.9611396,18.0334478 Z M45.0801735,10.9340699 C44.5146981,10.3675955 43.7613971,10.0558847 42.9611396,10.0558847 C42.159883,10.0558847 41.407581,10.3675955 40.8411066,10.9340699 C39.6731902,12.1029854 39.6731902,14.0042214 40.8411066,15.1731368 C41.9740554,16.3050866 43.9482237,16.3050866 45.0801735,15.1731368 C46.2490889,14.0042214 46.2490889,12.1029854 45.0801735,10.9340699 Z" id="gear-large" sketch:type="MSShapeGroup">
                <animateTransform attributeType="xml"
                attributeName="transform"
                type="rotate"
                from="0 43 13"
                to="-360 43 13"
                dur="3s"
                repeatCount="indefinite" transform-origin="50% 50%"/>
            </path>
            <path d="M34.2891856,25.477541 C34.5929038,25.7812592 34.6688334,26.2458281 34.4760123,26.6304712 L32.5058403,30.5718144 C32.7356271,31.0493713 32.9374398,31.5319235 33.1092804,32.0134768 L37.2824084,33.4041864 C37.6900302,33.5400603 37.9657744,33.9227053 37.9657744,34.3523067 L37.9657744,39.6803632 C37.9657744,40.1099646 37.6900302,40.4916105 37.2824084,40.6284835 L33.1092804,42.0191932 C32.9374398,42.5007464 32.7356271,42.9832987 32.5058403,43.4608556 L34.4760123,47.4011996 C34.6688334,47.7868418 34.5939029,48.2504117 34.2891856,48.555129 L30.5216812,52.3226334 C30.2169639,52.6263516 29.752395,52.7022812 29.3687509,52.5104591 L25.4274078,50.539288 C24.9488518,50.7690748 24.4672986,50.9708876 23.9857454,51.1427282 L22.5950358,55.3158562 C22.4591618,55.723478 22.0765169,55.9982231 21.6469154,55.9982231 L16.318859,55.9982231 C15.8892575,55.9982231 15.5066126,55.723478 15.3707386,55.3158562 L13.980029,51.1427282 C13.4984758,50.9708876 13.0159235,50.7690748 12.5383666,50.539288 L8.59702347,52.5104591 C8.21138127,52.7022812 7.74781139,52.6263516 7.44409318,52.3226334 L3.67658877,48.555129 C3.37187149,48.2504117 3.29694102,47.7868418 3.48976211,47.4011996 L5.45993414,43.4608556 C5.23014734,42.9832987 5.02833458,42.5007464 4.85649402,42.0191932 L0.683365956,40.6284835 C0.275744158,40.4916105 0,40.1099646 0,39.6803632 L0,34.3523067 C0,33.9227053 0.275744158,33.5400603 0.683365956,33.4041864 L4.85649402,32.0134768 C5.02833458,31.5319235 5.23014734,31.0493713 5.45993414,30.5718144 L3.48976211,26.6304712 C3.29694102,26.2458281 3.37287057,25.7812592 3.67658877,25.477541 L7.44409318,21.7100365 C7.74781139,21.4063183 8.21238035,21.3323869 8.59702347,21.5232099 L12.5383666,23.4933819 C13.0169226,23.2635951 13.4984758,23.0617824 13.980029,22.8899418 L15.3707386,18.7168137 C15.5066126,18.3091919 15.8892575,18.0334478 16.318859,18.0334478 L21.6469154,18.0334478 C22.0765169,18.0334478 22.4591618,18.3091919 22.5950358,18.7168137 L23.9857454,22.8899418 C24.4672986,23.0617824 24.9488518,23.2635951 25.4274078,23.4933819 L29.3687509,21.5232099 C29.7533941,21.3313879 30.217963,21.4063183 30.5216812,21.7100365 L34.2891856,25.477541 Z M29.6185192,23.6322531 L25.8739935,25.5045159 C25.5872595,25.6463843 25.2505719,25.6443862 24.9658361,25.4965233 C24.2794729,25.1388552 23.5821199,24.8471259 22.8947577,24.630327 C22.5900404,24.5334169 22.3492638,24.2966366 22.2473583,23.9939175 L20.9265838,20.0315938 L17.0391906,20.0315938 L15.7184161,23.9939175 C15.6165106,24.2966366 15.3767331,24.5334169 15.0720158,24.630327 C14.3836545,24.8471259 13.6863015,25.1388552 12.9999383,25.4965233 C12.7152025,25.6443862 12.3785149,25.6463843 12.0917809,25.5045159 L8.34725521,23.6322531 L5.59880529,26.380703 L7.47006908,30.1252287 C7.6139356,30.4119627 7.61093838,30.7496494 7.46307557,31.0343852 C7.10540742,31.7197493 6.8136781,32.4161032 6.59687925,33.1044645 C6.50096824,33.4101809 6.26318886,33.6499584 5.96046973,33.7518638 L1.99814607,35.0726384 L1.99814607,38.9600316 L5.96046973,40.2808061 C6.26318886,40.3817125 6.50096824,40.6224891 6.59687925,40.9282054 C6.8136781,41.6155677 7.10540742,42.3119216 7.46307557,42.9992838 C7.61093838,43.2830206 7.6139356,43.6217063 7.47006908,43.9074412 L5.59880529,47.6509679 L8.34725521,50.4004169 L12.0917809,48.528154 C12.3775158,48.3852866 12.7162016,48.3872847 13.0009374,48.5361466 C13.6863015,48.8938147 14.3826554,49.1855441 15.0710167,49.4023429 C15.3767331,49.4982539 15.6165106,49.7350342 15.7184161,50.0387524 L17.0391906,54.000077 L20.9265838,54.000077 L22.2473583,50.0387524 C22.3492638,49.7350342 22.5900404,49.4982539 22.8947577,49.4023429 C23.5821199,49.1855441 24.2794729,48.8938147 24.9658361,48.5361466 C25.2495728,48.3872847 25.5882586,48.3852866 25.8749925,48.528154 L29.6185192,50.4004169 L32.3669691,47.6509679 L30.4947062,43.9074412 C30.3528379,43.6217063 30.354836,43.2830206 30.5036979,42.9992838 C30.860367,42.3119216 31.1520963,41.6155677 31.3688951,40.9282054 C31.4648062,40.6224891 31.7025855,40.3817125 32.0053047,40.2808061 L35.9676283,38.9600316 L35.9676283,35.0726384 L32.0053047,33.7518638 C31.7025855,33.6499584 31.4648062,33.4101809 31.3688951,33.1044645 C31.1520963,32.4161032 30.860367,31.7197493 30.5036979,31.0343852 C30.354836,30.7496494 30.3518388,30.4119627 30.4947062,30.1252287 L32.3669691,26.380703 L29.6185192,23.6322531 Z M18.9823877,46.0074928 C14.0249873,46.0074928 9.99073035,41.9742349 9.99073035,37.0158354 C9.99073035,32.058435 14.0249873,28.0241781 18.9823877,28.0241781 C23.9407871,28.0241781 27.974045,32.058435 27.974045,37.0158354 C27.974045,41.9742349 23.9407871,46.0074928 18.9823877,46.0074928 Z M18.9823877,30.0223242 C15.1269648,30.0223242 11.9888764,33.1594135 11.9888764,37.0158354 C11.9888764,40.8722574 15.1269648,44.0093467 18.9823877,44.0093467 C22.8388096,44.0093467 25.976898,40.8722574 25.976898,37.0158354 C25.976898,33.1594135 22.8388096,30.0223242 18.9823877,30.0223242 Z M18.9823877,42.0112006 C16.2289424,42.0112006 13.9880216,39.7702798 13.9880216,37.0158354 C13.9880216,34.2623902 16.2289424,32.0204703 18.9823877,32.0204703 C21.736832,32.0204703 23.9787519,34.2623902 23.9787519,37.0158354 C23.9787519,39.7702798 21.736832,42.0112006 18.9823877,42.0112006 Z M18.9823877,34.0186163 C17.3299209,34.0186163 15.9851686,35.3633686 15.9851686,37.0158354 C15.9851686,38.6693013 17.3299209,40.0130545 18.9823877,40.0130545 C20.6358535,40.0130545 21.9806058,38.6693013 21.9806058,37.0158354 C21.9806058,35.3633686 20.6358535,34.0186163 18.9823877,34.0186163 Z" id="gear-small" sketch:type="MSShapeGroup">    
                <animateTransform attributeType="xml"
                attributeName="transform"
                type="rotate"
                from="0 19 37"
                to="360 19 37"
                dur="5s"
                repeatCount="indefinite" transform-origin="50% 50%"/>
            </path>
        </g>
    </g>
</svg>