<?xml version="1.0" encoding="UTF-8" standalone="no"?>
<svg width="50px" height="52px" viewBox="0 0 50 52" version="1.1" xmlns="http://www.w3.org/2000/svg" xmlns:xlink="http://www.w3.org/1999/xlink" xmlns:sketch="http://www.bohemiancoding.com/sketch/ns">
    <!-- Generator: Sketch 3.3.3 (12081) - http://www.bohemiancoding.com/sketch -->
    <title>hours-stint</title>
    <desc>Created with Sketch.</desc>
    <defs></defs>
    <g id="Page-1" stroke="none" stroke-width="1" fill="none" fill-rule="evenodd" sketch:type="MSPage">
        <g id="hours-stint" sketch:type="MSArtboardGroup" fill="#505070">
            <path d="M48.528,13.925 C48.344,14.207 48.029,14.377 47.692,14.377 L47.689,14.377 C47.35,14.376 47.035,14.204 46.852,13.919 C45.619,12.009 44.149,10.3 42.502,8.795 L41.071,10.226 C45.926,14.621 49,20.951 49,28 C49,35.02 45.952,41.325 41.132,45.718 L45.707,50.293 C46.098,50.684 46.098,51.316 45.707,51.707 C45.512,51.902 45.256,52 45,52 C44.744,52 44.488,51.902 44.293,51.707 L39.595,47.009 C35.545,50.125 30.493,52 25,52 C19.507,52 14.455,50.125 10.406,47.009 L5.707,51.707 C5.511,51.902 5.256,52 5,52 C4.744,52 4.488,51.902 4.293,51.707 C3.902,51.316 3.902,50.684 4.293,50.293 L8.868,45.718 C4.048,41.325 1,35.02 1,28 C1,20.98 4.048,14.675 8.868,10.282 L7.437,8.851 C5.815,10.343 4.366,12.033 3.148,13.919 C2.965,14.204 2.65,14.376 2.311,14.377 L2.308,14.377 C1.971,14.377 1.657,14.207 1.472,13.925 C0.509,12.456 0,10.753 0,9 C0,4.038 4.038,0 9,0 C11.272,0 13.445,0.857 15.12,2.413 C15.368,2.643 15.482,2.984 15.424,3.317 C15.366,3.651 15.142,3.933 14.831,4.065 C12.711,4.967 10.751,6.149 8.966,7.552 L10.405,8.992 C14.455,5.875 19.507,4 25,4 C30.463,4 35.489,5.855 39.528,8.941 L40.969,7.5 C39.201,6.12 37.263,4.956 35.17,4.065 C34.858,3.933 34.634,3.651 34.576,3.317 C34.518,2.984 34.633,2.643 34.881,2.413 C36.555,0.857 38.728,0 41,0 C45.963,0 50,4.038 50,9 C50,10.753 49.491,12.456 48.528,13.925 L48.528,13.925 Z M12.496,2.941 C11.439,2.328 10.238,2 9,2 C5.14,2 2,5.14 2,9 C2,9.835 2.148,10.656 2.436,11.429 C5.08,7.825 8.513,4.929 12.496,2.941 L12.496,2.941 Z M25,6 C12.869,6 3,15.869 3,28 C3,40.131 12.869,50 25,50 C37.131,50 47,40.131 47,28 C47,15.869 37.131,6 25,6 L25,6 Z M41,2 C39.762,2 38.561,2.328 37.504,2.941 C39.55,3.962 41.447,5.226 43.17,6.699 C43.173,6.702 43.176,6.702 43.178,6.705 C43.18,6.706 43.18,6.708 43.181,6.709 C44.809,8.102 46.281,9.68 47.564,11.429 C47.852,10.656 48,9.835 48,9 C48,5.14 44.86,2 41,2 L41,2 Z M25,48 C13.972,48 5,39.028 5,28 C5,16.972 13.972,8 25,8 C36.028,8 45,16.972 45,28 C45,39.028 36.028,48 25,48 L25,48 Z M25,10 C15.075,10 7,18.075 7,28 C7,37.925 15.075,46 25,46 C34.926,46 43,37.925 43,28 C43,18.075 34.926,10 25,10 L25,10 Z M40.71,28.71 C40.52,28.89 40.27,29 40,29 C39.73,29 39.48,28.89 39.29,28.71 C39.11,28.52 39,28.27 39,28 C39,27.74 39.11,27.48 39.29,27.29 C39.66,26.92 40.34,26.92 40.71,27.29 C40.89,27.48 41,27.74 41,28 C41,28.26 40.89,28.52 40.71,28.71 L40.71,28.71 Z M37.99,36.5 C37.73,36.5 37.47,36.39 37.28,36.21 C37.1,36.02 36.99,35.76 36.99,35.5 C36.99,35.24 37.1,34.98 37.28,34.79 C37.65,34.42 38.32,34.42 38.7,34.79 C38.88,34.98 38.99,35.24 38.99,35.5 C38.99,35.76 38.88,36.02 38.7,36.21 C38.51,36.39 38.25,36.5 37.99,36.5 L37.99,36.5 Z M37.99,21.5 C37.73,21.5 37.47,21.39 37.28,21.21 C37.1,21.02 36.99,20.76 36.99,20.5 C36.99,20.24 37.1,19.98 37.28,19.79 C37.65,19.42 38.32,19.42 38.7,19.79 C38.88,19.98 38.99,20.24 38.99,20.5 C38.99,20.76 38.88,21.02 38.7,21.21 C38.51,21.39 38.25,21.5 37.99,21.5 L37.99,21.5 Z M32.5,41.99 C32.24,41.99 31.98,41.88 31.79,41.7 C31.61,41.51 31.5,41.25 31.5,40.99 C31.5,40.73 31.61,40.47 31.79,40.28 C32.17,39.91 32.84,39.91 33.21,40.28 C33.39,40.47 33.5,40.73 33.5,40.99 C33.5,41.25 33.39,41.51 33.21,41.7 C33.02,41.88 32.76,41.99 32.5,41.99 L32.5,41.99 Z M32.5,16.01 C32.24,16.01 31.98,15.9 31.79,15.72 C31.61,15.53 31.5,15.28 31.5,15.01 C31.5,14.75 31.61,14.49 31.79,14.3 C32.17,13.93 32.84,13.93 33.21,14.3 C33.39,14.49 33.5,14.75 33.5,15.01 C33.5,15.27 33.39,15.53 33.21,15.72 C33.02,15.9 32.76,16.01 32.5,16.01 L32.5,16.01 Z M25,44 C24.74,44 24.48,43.89 24.29,43.71 C24.11,43.52 24,43.26 24,43 C24,42.74 24.11,42.48 24.29,42.29 C24.67,41.92 25.33,41.92 25.71,42.29 C25.89,42.48 26,42.74 26,43 C26,43.26 25.89,43.52 25.71,43.71 C25.52,43.89 25.26,44 25,44 L25,44 Z M25,29 L15,29 C14.448,29 14,28.552 14,28 C14,27.448 14.448,27 15,27 L24,27 L24,17 C24,16.448 24.448,16 25,16 C25.552,16 26,16.448 26,17 L26,28 C26,28.552 25.552,29 25,29 L25,29 Z M25,14 C24.74,14 24.48,13.89 24.29,13.71 C24.11,13.52 24,13.26 24,13 C24,12.74 24.11,12.48 24.29,12.29 C24.67,11.92 25.34,11.92 25.71,12.29 C25.89,12.48 26,12.74 26,13 C26,13.26 25.89,13.52 25.71,13.71 C25.52,13.89 25.26,14 25,14 L25,14 Z M17.5,16.01 C17.24,16.01 16.98,15.9 16.79,15.72 C16.61,15.53 16.5,15.27 16.5,15.01 C16.5,14.75 16.61,14.49 16.79,14.3 C17.16,13.93 17.83,13.93 18.21,14.3 C18.39,14.49 18.5,14.75 18.5,15.01 C18.5,15.27 18.39,15.53 18.21,15.72 C18.02,15.9 17.76,16.01 17.5,16.01 L17.5,16.01 Z M12.01,36.5 C11.74,36.5 11.49,36.39 11.3,36.21 C11.12,36.02 11.01,35.76 11.01,35.5 C11.01,35.24 11.12,34.98 11.3,34.79 C11.67,34.42 12.34,34.42 12.72,34.79 C12.9,34.98 13.01,35.23 13.01,35.5 C13.01,35.77 12.9,36.02 12.71,36.21 C12.53,36.39 12.27,36.5 12.01,36.5 L12.01,36.5 Z M12.01,21.5 C11.75,21.5 11.49,21.39 11.3,21.21 C11.12,21.02 11.01,20.76 11.01,20.5 C11.01,20.24 11.12,19.98 11.3,19.79 C11.67,19.42 12.35,19.42 12.72,19.79 C12.9,19.98 13.01,20.23 13.01,20.5 C13.01,20.77 12.9,21.02 12.72,21.21 C12.53,21.39 12.27,21.5 12.01,21.5 L12.01,21.5 Z M10,29 C9.73,29 9.48,28.89 9.29,28.71 C9.11,28.52 9,28.27 9,28 C9,27.74 9.11,27.48 9.29,27.29 C9.66,26.92 10.34,26.92 10.71,27.29 C10.889,27.48 11,27.74 11,28 C11,28.26 10.889,28.52 10.71,28.71 C10.52,28.89 10.27,29 10,29 L10,29 Z M18.21,40.28 C18.39,40.47 18.5,40.73 18.5,40.99 C18.5,41.25 18.39,41.51 18.21,41.7 C18.02,41.88 17.76,41.99 17.5,41.99 C17.24,41.99 16.98,41.88 16.79,41.7 C16.61,41.51 16.5,41.25 16.5,40.99 C16.5,40.73 16.61,40.47 16.79,40.28 C17.16,39.91 17.83,39.91 18.21,40.28 L18.21,40.28 Z" id="Shape" sketch:type="MSShapeGroup"></path>
        </g>
    </g>
</svg>