<?xml version="1.0" encoding="UTF-8" standalone="no"?>
<svg width="69px" height="86px" viewBox="0 0 69 86" version="1.1" xmlns="http://www.w3.org/2000/svg" xmlns:xlink="http://www.w3.org/1999/xlink" xmlns:sketch="http://www.bohemiancoding.com/sketch/ns">
    <!-- Generator: Sketch 3.3.3 (12081) - http://www.bohemiancoding.com/sketch -->
    <title>hours-stint-a</title>
    <desc>Created with Sketch.</desc>
    <defs></defs>
    <g id="Page-1" stroke="none" stroke-width="1" fill="none" fill-rule="evenodd" sketch:type="MSPage">
        <g id="hours-stint-a" sketch:type="MSArtboardGroup" fill="#505070">
            <path d="M66.7654112,27.9802638 C66.4882775,28.2571274 66.1244507,28.3962692 65.760624,28.3962692 C65.3967972,28.3962692 65.0329704,28.2571274 64.7558367,27.9802638 L62.9182273,26.144445 L60.2350048,28.8250528 C65.4365907,34.8024675 68.6030206,42.5873047 68.6030206,51.1132845 C68.6030206,69.901676 53.3009781,85.1888075 34.4942603,85.1888075 C15.6861214,85.1888075 0.385500051,69.901676 0.385500051,51.1132845 C0.385500051,42.6852718 3.47376406,34.9756847 8.56876013,29.0266663 L5.68514868,26.144445 L3.84753922,27.9802638 C3.56898435,28.2571274 3.20515757,28.3962692 2.84275199,28.3962692 C2.47892521,28.3962692 2.11509844,28.2571274 1.83654356,27.9802638 L0.416766415,26.5604504 C-0.138922138,26.0053033 -0.138922138,25.1079812 0.416766415,24.5528341 L6.1015598,18.8735803 C6.65582715,18.3184332 7.55544571,18.3184332 8.11113426,18.8735803 L9.5323326,20.2933938 C10.0866,20.8485408 10.0866,21.7458629 9.5323326,22.30101 L7.69472314,24.1368288 L10.5044323,26.9452198 C15.2583407,22.2442174 21.379442,18.9190143 28.2182485,17.6411822 C25.9784399,15.8167219 24.5458719,13.0424064 24.5458719,9.93869421 C24.5458719,4.45821426 29.0084347,0 34.4942603,0 C39.980086,0 44.4426488,4.45821426 44.4426488,9.93869421 C44.4426488,13.0424064 43.0086596,15.8167219 40.7702722,17.6411822 C47.5152796,18.9005568 53.5567938,22.1604485 58.2822783,26.7592242 L60.9086528,24.1368288 L59.0710433,22.30101 C58.5153548,21.7458629 58.5153548,20.8485408 59.0710433,20.2933938 L60.4922417,18.8735803 C61.0479302,18.3184332 61.9461276,18.3184332 62.5018161,18.8735803 L68.1866095,24.5528341 C68.7422981,25.1079812 68.7422981,26.0053033 68.1866095,26.5604504 L66.7654112,27.9802638 L66.7654112,27.9802638 Z M41.6002521,9.93869421 C41.6002521,6.0242685 38.4125042,2.83962692 34.4942603,2.83962692 C30.5760165,2.83962692 27.3882686,6.0242685 27.3882686,9.93869421 C27.3882686,12.8422127 29.146291,15.336825 31.6518637,16.4357606 L31.6518637,11.3585077 C31.6518637,10.5747706 32.2871393,9.93869421 33.073062,9.93869421 L35.9154587,9.93869421 C36.6999602,9.93869421 37.336657,10.5747706 37.336657,11.3585077 L37.336657,16.4357606 C39.8408085,15.336825 41.6002521,12.8422127 41.6002521,9.93869421 L41.6002521,9.93869421 Z M57.2874394,29.8004647 C57.2803334,29.7933656 57.2718062,29.7919458 57.2647002,29.7848467 C57.2533307,29.7734882 57.2504883,29.7578703 57.2391187,29.7465118 C51.5330073,23.6881677 43.4591795,19.8773884 34.4942603,19.8773884 C17.2537032,19.8773884 3.22789674,33.8895274 3.22789674,51.1132845 C3.22789674,68.3370416 17.2537032,82.3491806 34.4942603,82.3491806 C51.7348175,82.3491806 65.760624,68.3370416 65.760624,51.1132845 C65.760624,42.8726872 62.5259765,35.3874306 57.2874394,29.8004647 L57.2874394,29.8004647 Z M34.4942603,79.5095537 C18.821285,79.5095537 6.07029343,66.7709873 6.07029343,51.1132845 C6.07029343,35.4555817 18.821285,22.7170153 34.4942603,22.7170153 C50.1672357,22.7170153 62.9182273,35.4555817 62.9182273,51.1132845 C62.9182273,66.7709873 50.1672357,79.5095537 34.4942603,79.5095537 L34.4942603,79.5095537 Z M34.4942603,25.5566422 C20.3888668,25.5566422 8.91269013,37.0216359 8.91269013,51.1132845 C8.91269013,65.2049331 20.3888668,76.6699267 34.4942603,76.6699267 C48.5996539,76.6699267 60.0758306,65.2049331 60.0758306,51.1132845 C60.0758306,37.0216359 48.5996539,25.5566422 34.4942603,25.5566422 L34.4942603,25.5566422 Z M56.8212864,52.121352 C56.5512587,52.3769185 56.1817471,52.533098 55.8122355,52.533098 C55.442724,52.533098 55.0732124,52.3769185 54.8031847,52.121352 C54.547369,51.8515875 54.3910372,51.482436 54.3910372,51.1132845 C54.3910372,50.744133 54.547369,50.3749815 54.8031847,50.1052169 C55.3432401,49.579886 56.2798098,49.579886 56.8212864,50.1052169 C57.0756809,50.3749815 57.2334339,50.744133 57.2334339,51.1132845 C57.2334339,51.4966341 57.0756809,51.8515875 56.8212864,52.121352 L56.8212864,52.121352 Z M52.9556269,63.1816989 C52.5861153,63.1816989 52.2166037,63.0255194 51.946576,62.769953 C51.6893391,62.5001884 51.5344285,62.1310369 51.5344285,61.7618854 C51.5344285,61.3927339 51.6893391,61.0235824 51.946576,60.7538179 C52.4866314,60.2284869 53.4374131,60.2284869 53.9646777,60.7538179 C54.2204934,61.0235824 54.3768252,61.3927339 54.3768252,61.7618854 C54.3768252,62.1310369 54.2204934,62.5001884 53.9646777,62.769953 C53.69465,63.0255194 53.3251384,63.1816989 52.9556269,63.1816989 L52.9556269,63.1816989 Z M52.9556269,41.884497 C52.5861153,41.884497 52.2166037,41.7283175 51.946576,41.4727511 C51.6893391,41.2029866 51.5344285,40.8338351 51.5344285,40.4646836 C51.5344285,40.0955321 51.6893391,39.7263806 51.946576,39.456616 C52.4866314,38.931285 53.4374131,38.931285 53.9646777,39.456616 C54.2204934,39.7263806 54.3768252,40.0955321 54.3768252,40.4646836 C54.3768252,40.8338351 54.2204934,41.2029866 53.9646777,41.4727511 C53.69465,41.7283175 53.3251384,41.884497 52.9556269,41.884497 L52.9556269,41.884497 Z M45.1532479,70.9764748 C44.7837364,70.9764748 44.4142248,70.8202953 44.1441971,70.5647289 C43.8883814,70.2949643 43.7320496,69.9258128 43.7320496,69.5566613 C43.7320496,69.1875098 43.8883814,68.8183583 44.1441971,68.5485938 C44.6686193,68.0232628 45.6208222,68.0232628 46.1622988,68.5485938 C46.4166933,68.8183583 46.5744463,69.1875098 46.5744463,69.5566613 C46.5744463,69.9258128 46.4166933,70.2949643 46.1622988,70.5647289 C45.8922711,70.8202953 45.5227595,70.9764748 45.1532479,70.9764748 L45.1532479,70.9764748 Z M45.1532479,34.0897211 C44.7837364,34.0897211 44.4142248,33.9335417 44.1441971,33.6779752 C43.8883814,33.4082107 43.7320496,33.0390592 43.7320496,32.6699077 C43.7320496,32.286558 43.8883814,31.9316047 44.1441971,31.6618401 C44.6686193,31.1365091 45.6208222,31.1365091 46.1622988,31.6618401 C46.4166933,31.9316047 46.5744463,32.286558 46.5744463,32.6699077 C46.5744463,33.0390592 46.4166933,33.4082107 46.1622988,33.6779752 C45.8922711,33.9335417 45.5227595,34.0897211 45.1532479,34.0897211 L45.1532479,34.0897211 Z M34.4942603,31.2358961 C34.1233276,31.2358961 33.7552372,31.0797166 33.4852095,30.8241502 C33.2293938,30.5543856 33.073062,30.1852341 33.073062,29.8160826 C33.073062,29.4469311 33.2293938,29.0777796 33.4852095,28.8080151 C34.0252649,28.2826841 34.9618346,28.2826841 35.5033112,28.8080151 C35.7577057,29.0777796 35.9154587,29.4469311 35.9154587,29.8160826 C35.9154587,30.1852341 35.7577057,30.5543856 35.5033112,30.8241502 C35.2332835,31.0797166 34.8623507,31.2358961 34.4942603,31.2358961 L34.4942603,31.2358961 Z M23.8352728,70.9764748 C23.46434,70.9764748 23.0962496,70.8202953 22.8262219,70.5647289 C22.5704062,70.2949643 22.4140744,69.9258128 22.4140744,69.5566613 C22.4140744,69.1875098 22.5704062,68.8183583 22.8262219,68.5485938 C23.3506441,68.0232628 24.302847,68.0232628 24.8443236,68.5485938 C25.0987181,68.8183583 25.2564711,69.1875098 25.2564711,69.5566613 C25.2564711,69.9258128 25.0987181,70.2949643 24.8443236,70.5647289 C24.5742959,70.8202953 24.2047843,70.9764748 23.8352728,70.9764748 L23.8352728,70.9764748 Z M23.8352728,34.0897211 C23.46434,34.0897211 23.0962496,33.9335417 22.8262219,33.6779752 C22.5704062,33.4082107 22.4140744,33.0390592 22.4140744,32.6699077 C22.4140744,32.3007562 22.5704062,31.9316047 22.8262219,31.6618401 C23.3662773,31.1365091 24.302847,31.1365091 24.8443236,31.6618401 C25.0987181,31.9316047 25.2564711,32.3007562 25.2564711,32.6699077 C25.2564711,33.0390592 25.0987181,33.4082107 24.8443236,33.6779752 C24.5742959,33.9335417 24.2047843,34.0897211 23.8352728,34.0897211 L23.8352728,34.0897211 Z M16.0314726,63.1816989 C15.6633823,63.1816989 15.2924495,63.0255194 15.0224218,62.769953 C14.7666061,62.5001884 14.6116955,62.1310369 14.6116955,61.7618854 C14.6116955,61.3927339 14.7666061,61.0235824 15.0224218,60.7538179 C15.5496864,60.2284869 16.5146801,60.2284869 17.0405235,60.7538179 C17.2977604,61.0235824 17.4540922,61.3927339 17.4540922,61.7618854 C17.4540922,62.1310369 17.2977604,62.5001884 17.0405235,62.769953 C16.7704958,63.0255194 16.4024054,63.1816989 16.0314726,63.1816989 L16.0314726,63.1816989 Z M16.0314726,41.884497 C15.6633823,41.884497 15.2924495,41.7283175 15.0224218,41.4727511 C14.7666061,41.2029866 14.6116955,40.8480332 14.6116955,40.4646836 C14.6116955,40.0955321 14.7666061,39.7263806 15.0224218,39.456616 C15.5496864,38.931285 16.5146801,38.931285 17.0405235,39.456616 C17.2977604,39.7263806 17.4540922,40.0955321 17.4540922,40.4646836 C17.4540922,40.8480332 17.2977604,41.2029866 17.0405235,41.4727511 C16.7704958,41.7283175 16.4024054,41.884497 16.0314726,41.884497 L16.0314726,41.884497 Z M13.1762852,52.533098 C12.8053524,52.533098 12.437262,52.3769185 12.1672343,52.121352 C11.9099974,51.8515875 11.7550868,51.482436 11.7550868,51.1132845 C11.7550868,50.744133 11.9099974,50.3749815 12.1672343,50.1052169 C12.7072897,49.579886 13.6594926,49.579886 14.185336,50.1052169 C14.4397305,50.3749815 14.5974835,50.744133 14.5974835,51.1132845 C14.5974835,51.482436 14.4397305,51.8515875 14.185336,52.121352 C13.9153083,52.3769185 13.5443755,52.533098 13.1762852,52.533098 L13.1762852,52.533098 Z M35.5033112,71.4024188 C35.7577057,71.6721834 35.9154587,72.0413349 35.9154587,72.4104864 C35.9154587,72.7796379 35.7577057,73.1487894 35.5033112,73.4185539 C35.2332835,73.6741203 34.8623507,73.8302998 34.4942603,73.8302998 C34.1233276,73.8302998 33.7552372,73.6741203 33.4852095,73.4185539 C33.2293938,73.1487894 33.073062,72.7796379 33.073062,72.4104864 C33.073062,72.0413349 33.2293938,71.6721834 33.4852095,71.4024188 C34.0096317,70.8770878 34.9774678,70.8770878 35.5033112,71.4024188 L35.5033112,71.4024188 Z" id="Shape" sketch:type="MSShapeGroup"></path>
            <path d="M35.9154587,56.5312927 L35.9154587,58.2123518 C35.9154587,58.9960888 35.2787618,59.6321652 34.4942603,59.6321652 C33.7083377,59.6321652 33.073062,58.9960888 33.073062,58.2123518 L33.073062,56.5312927 C31.4216295,55.9434899 30.2306653,54.3816951 30.2306653,52.533098 C30.2306653,50.6845008 31.4216295,49.122706 33.073062,48.5349033 L33.073062,35.4953365 C33.073062,34.7115994 33.7083377,34.075523 34.4942603,34.075523 C35.2787618,34.075523 35.9154587,34.7115994 35.9154587,35.4953365 L35.9154587,48.5349033 C37.56547,49.122706 38.7578554,50.6845008 38.7578554,52.533098 C38.7578554,54.3816951 37.56547,55.9434899 35.9154587,56.5312927 Z M34.5,54 C35.3284271,54 36,53.3284271 36,52.5 C36,51.6715729 35.3284271,51 34.5,51 C33.6715729,51 33,51.6715729 33,52.5 C33,53.3284271 33.6715729,54 34.5,54 Z" id="jarum" sketch:type="MSShapeGroup">
                                                           <animateTransform attributeType="xml"
                attributeName="transform"
                type="rotate"
                from="0 34.5 52.5"
                to="360 34.5 52.5"
                dur="3s"
                repeatCount="indefinite" transform-origin="50% 50%"/>
            </path>
        </g>
    </g>
</svg>