<?xml version="1.0" encoding="UTF-8" standalone="no"?>
<svg width="144px" height="145px" viewBox="0 0 144 145" version="1.1" xmlns="http://www.w3.org/2000/svg" xmlns:xlink="http://www.w3.org/1999/xlink" xmlns:sketch="http://www.bohemiancoding.com/sketch/ns">
    <!-- Generator: Sketch 3.3.3 (12081) - http://www.bohemiancoding.com/sketch -->
    <title>hours</title>
    <desc>Created with Sketch.</desc>
    <defs></defs>
    <g id="Page-1" stroke="none" stroke-width="1" fill="none" fill-rule="evenodd" sketch:type="MSPage">
        <g id="hours" sketch:type="MSArtboardGroup" fill="#000000">
            <path d="M144,27.7904667 L110.916,0.0359980139 L101.664,11.0513903 L134.748,38.805859 L144,27.7904667 L144,27.7904667 Z M42.336,11.0153923 L33.084,9.59232693e-14 L0,27.7544687 L9.252,38.769861 L42.336,11.0153923 L42.336,11.0153923 Z M75.6,44.2055611 L64.8,44.2055611 L64.8,87.4031778 L98.964,107.958044 L104.4,99.0665343 L75.6,82.0034757 L75.6,44.2055611 L75.6,44.2055611 Z M71.964,15.40715 C36.144,15.40715 7.2,44.4215492 7.2,80.203575 C7.2,115.985601 36.144,145 71.964,145 C107.784,145 136.8,115.985601 136.8,80.203575 C136.8,44.4215492 107.784,15.40715 71.964,15.40715 L71.964,15.40715 Z M72,130.600794 C44.172,130.600794 21.6,108.03004 21.6,80.203575 C21.6,52.3771102 44.172,29.8063555 72,29.8063555 C99.828,29.8063555 122.4,52.3771102 122.4,80.203575 C122.4,108.03004 99.864,130.600794 72,130.600794 L72,130.600794 Z" id="Shape" sketch:type="MSShapeGroup"></path>
        </g>
    </g>
</svg>