<?xml version="1.0" encoding="UTF-8" standalone="no"?>
<svg width="40px" height="36px" viewBox="0 0 40 36" version="1.1" xmlns="http://www.w3.org/2000/svg" xmlns:xlink="http://www.w3.org/1999/xlink" xmlns:sketch="http://www.bohemiancoding.com/sketch/ns">
    <!-- Generator: Sketch 3.3.3 (12081) - http://www.bohemiancoding.com/sketch -->
    <title>industry</title>
    <desc>Created with Sketch.</desc>
    <defs></defs>
    <g id="Page-1" stroke="none" stroke-width="1" fill="none" fill-rule="evenodd" sketch:type="MSPage">
        <g id="industry" sketch:type="MSArtboardGroup" fill="#000000">
            <path d="M20,8 L20,0 L0,0 L0,36 L40,36 L40,8 L20,8 L20,8 Z M8,32 L4,32 L4,28 L8,28 L8,32 L8,32 Z M8,24 L4,24 L4,20 L8,20 L8,24 L8,24 Z M8,16 L4,16 L4,12 L8,12 L8,16 L8,16 Z M8,8 L4,8 L4,4 L8,4 L8,8 L8,8 Z M16,32 L12,32 L12,28 L16,28 L16,32 L16,32 Z M16,24 L12,24 L12,20 L16,20 L16,24 L16,24 Z M16,16 L12,16 L12,12 L16,12 L16,16 L16,16 Z M16,8 L12,8 L12,4 L16,4 L16,8 L16,8 Z M36,32 L20,32 L20,28 L24,28 L24,24 L20,24 L20,20 L24,20 L24,16 L20,16 L20,12 L36,12 L36,32 L36,32 Z M32,16 L28,16 L28,20 L32,20 L32,16 L32,16 Z M32,24 L28,24 L28,28 L32,28 L32,24 L32,24 Z" id="Shape" sketch:type="MSShapeGroup"></path>
        </g>
    </g>
</svg>