<?xml version="1.0" encoding="UTF-8" standalone="no"?>
<svg width="35px" height="35px" viewBox="0 0 35 35" version="1.1" xmlns="http://www.w3.org/2000/svg" xmlns:xlink="http://www.w3.org/1999/xlink" xmlns:sketch="http://www.bohemiancoding.com/sketch/ns">
    <!-- Generator: Sketch 3.3.3 (12081) - http://www.bohemiancoding.com/sketch -->
    <title>instagram-circle</title>
    <desc>Created with Sketch.</desc>
    <defs></defs>
    <g id="Page-1" stroke="none" stroke-width="1" fill="none" fill-rule="evenodd" sketch:type="MSPage">
        <g id="instagram-circle" sketch:type="MSArtboardGroup" fill="#4E433C">
            <path d="M22.96875,17.5 C22.96875,20.5205729 20.5205729,22.96875 17.5,22.96875 C14.4794271,22.96875 12.03125,20.5205729 12.03125,17.5 C12.03125,17.1882812 12.0640625,16.8838542 12.1205729,16.5885417 L10.2083333,16.5885417 L10.2083333,23.8747396 C10.2083333,24.3815104 10.6184896,24.7916667 11.1252604,24.7916667 L23.8765625,24.7916667 C24.3815104,24.7916667 24.7916667,24.3815104 24.7916667,23.8747396 L24.7916667,16.5885417 L22.8794271,16.5885417 C22.9359375,16.8838542 22.96875,17.1882812 22.96875,17.5 L22.96875,17.5 Z M17.5,21.1458333 C19.5125,21.1458333 21.1458333,19.5125 21.1458333,17.5 C21.1458333,15.4875 19.5125,13.8541667 17.5,13.8541667 C15.4875,13.8541667 13.8541667,15.4875 13.8541667,17.5 C13.8541667,19.5125 15.4875,21.1458333 17.5,21.1458333 L17.5,21.1458333 Z M21.875,13.671875 L24.0606771,13.671875 C24.3632812,13.671875 24.609375,13.4257812 24.609375,13.125 L24.609375,10.9393229 C24.609375,10.6367187 24.3632812,10.390625 24.0606771,10.390625 L21.875,10.390625 C21.5723958,10.390625 21.3263021,10.6367187 21.3263021,10.9393229 L21.3263021,13.125 C21.328125,13.4257812 21.5742187,13.671875 21.875,13.671875 L21.875,13.671875 Z M17.5,0 C7.83489583,0 0,7.83489583 0,17.5 C0,27.1651042 7.83489583,35 17.5,35 C27.1651042,35 35,27.1651042 35,17.5 C35,7.83489583 27.1651042,0 17.5,0 L17.5,0 Z M26.6145833,24.5893229 C26.6145833,25.703125 25.703125,26.6145833 24.5893229,26.6145833 L10.4106771,26.6145833 C9.296875,26.6145833 8.38541667,25.703125 8.38541667,24.5893229 L8.38541667,10.4106771 C8.38541667,9.296875 9.296875,8.38541667 10.4106771,8.38541667 L24.5893229,8.38541667 C25.703125,8.38541667 26.6145833,9.296875 26.6145833,10.4106771 L26.6145833,24.5893229 L26.6145833,24.5893229 Z" id="Shape" sketch:type="MSShapeGroup"></path>
        </g>
    </g>
</svg>