<?xml version="1.0" encoding="UTF-8" standalone="no"?>
<svg width="35px" height="35px" viewBox="0 0 35 35" version="1.1" xmlns="http://www.w3.org/2000/svg" xmlns:xlink="http://www.w3.org/1999/xlink" xmlns:sketch="http://www.bohemiancoding.com/sketch/ns">
    <!-- Generator: Sketch 3.3.3 (12081) - http://www.bohemiancoding.com/sketch -->
    <title>linkedin-circle</title>
    <desc>Created with Sketch.</desc>
    <defs></defs>
    <g id="Page-1" stroke="none" stroke-width="1" fill="none" fill-rule="evenodd" sketch:type="MSPage">
        <g id="linkedin-circle" sketch:type="MSArtboardGroup" fill="#4875B4">
            <path d="M17.5,0 C7.83489583,0 0,7.83489583 0,17.5 C0,27.1651042 7.83489583,35 17.5,35 C27.1651042,35 35,27.1651042 35,17.5 C35,7.83489583 27.1651042,0 17.5,0 L17.5,0 Z M13.2161458,24.7533854 L9.67239583,24.7533854 L9.67239583,13.3492187 L13.2161458,13.3492187 L13.2161458,24.7533854 L13.2161458,24.7533854 Z M11.4223958,11.9492187 C10.303125,11.9492187 9.57942708,11.15625 9.57942708,10.1755208 C9.57942708,9.17473958 10.325,8.40546875 11.4679687,8.40546875 C12.6109375,8.40546875 13.3109375,9.17473958 13.3328125,10.1755208 C13.3328125,11.15625 12.6109375,11.9492187 11.4223958,11.9492187 L11.4223958,11.9492187 Z M26.1588542,24.7533854 L22.6151042,24.7533854 L22.6151042,18.4333333 C22.6151042,16.9622396 22.1010417,15.9632812 20.8195313,15.9632812 C19.840625,15.9632812 19.2591146,16.6395833 19.0020833,17.2903646 C18.9072917,17.521875 18.8835937,17.85 18.8835937,18.1763021 L18.8835937,24.7515625 L15.3380208,24.7515625 L15.3380208,16.9859375 C15.3380208,15.5622396 15.2924479,14.371875 15.2450521,13.3473958 L18.3239583,13.3473958 L18.4861979,14.9315104 L18.5572917,14.9315104 C19.0239583,14.1877604 20.1669271,13.0903646 22.0791667,13.0903646 C24.4106771,13.0903646 26.1588542,14.6526042 26.1588542,18.0104167 L26.1588542,24.7533854 L26.1588542,24.7533854 Z" id="Shape" sketch:type="MSShapeGroup"></path>
        </g>
    </g>
</svg>