<?xml version="1.0" encoding="UTF-8" standalone="no"?>
<svg width="100px" height="21px" viewBox="0 0 100 21" version="1.1" xmlns="http://www.w3.org/2000/svg" xmlns:xlink="http://www.w3.org/1999/xlink" xmlns:sketch="http://www.bohemiancoding.com/sketch/ns">
    <!-- Generator: Sketch 3.3.3 (12081) - http://www.bohemiancoding.com/sketch -->
    <title>logo-stintern</title>
    <desc>Created with Sketch.</desc>
    <defs></defs>
    <g id="Page-1" stroke="none" stroke-width="1" fill="none" fill-rule="evenodd" sketch:type="MSPage">
        <g id="logo-stintern" sketch:type="MSArtboardGroup" fill="#000000">
            <g id="Group" sketch:type="MSLayerGroup">
                <path d="M9.54375,20.8479718 C7.53095238,19.352831 5.67470238,17.9896056 3.83422619,16.6053803 C0.588988095,14.1655352 -0.644642857,9.83539437 0.82172619,6.06959155 C2.22202381,2.4744507 6.14821429,-0.0692112676 9.79880952,0.253183099 C14.1485119,0.640647887 17.4794643,3.4871831 18.3357143,7.54521127 C19.0910714,11.1320704 17.4708333,14.8703662 14.3883929,16.9789437 C12.8952381,18.0026197 11.5395833,19.2238732 10.121131,20.3602394 C9.88184524,20.5516056 9.65238095,20.7550986 9.54375,20.8479718 L9.54375,20.8479718 Z M9.44136905,1.66639437 C5.91785714,1.64805634 2.94136905,3.84477465 1.92738095,7.21246479 C0.954166667,10.4429155 2.31309524,14.0365775 5.15386905,15.8511549 C5.82202381,16.2767746 6.36547619,16.3879859 7.09047619,15.8839859 C8.55952381,14.8662254 10.1401786,14.870662 11.6092262,15.8730423 C12.3345238,16.3669859 12.8699405,16.2962958 13.5485119,15.861507 C16.3916667,14.0389437 17.7580357,10.4860986 16.8235119,7.23523944 C15.8901786,3.98438028 12.8443452,1.68561972 9.44136905,1.66639437 L9.44136905,1.66639437 Z" id="Shape" sketch:type="MSShapeGroup"></path>
                <ellipse id="Oval" sketch:type="MSShapeGroup" cx="6.11577381" cy="14.4616056" rx="0.743154762" ry="0.738549296"></ellipse>
                <ellipse id="Oval" sketch:type="MSShapeGroup" cx="12.3782738" cy="14.4621972" rx="0.742261905" ry="0.739140845"></ellipse>
            </g>
            <g id="Group" sketch:type="MSLayerGroup" transform="translate(22.916667, 2.661972)">
                <path d="M0.625297619,13.3432817 C0.280654762,12.9223944 0.108928571,12.5438028 0.108928571,12.2080986 C0.108928571,11.8723944 0.393452381,11.4281408 0.963095238,10.875338 C1.29375,10.5597465 1.64494048,10.401507 2.01607143,10.401507 C2.38660714,10.401507 2.90297619,10.7307042 3.56547619,11.3888028 C3.75089286,11.613 4.01577381,11.8265493 4.36011905,12.0306338 C4.70446429,12.2347183 5.02232143,12.3364648 5.31369048,12.3364648 C6.54553571,12.3364648 7.16130952,11.8366056 7.16130952,10.836 C7.16130952,10.5334225 6.99255952,10.2802394 6.6547619,10.0758592 C6.31696429,9.87207042 5.89642857,9.7241831 5.39315476,9.63160563 C4.88988095,9.53961972 4.34672619,9.39173239 3.76428571,9.18735211 C3.18125,8.98356338 2.63839286,8.74309859 2.13511905,8.46684507 C1.63154762,8.19029577 1.21130952,7.75314085 0.873511905,7.15419718 C0.535714286,6.5555493 0.366964286,5.83474648 0.366964286,4.99238028 C0.366964286,3.83412676 0.800595238,2.82405634 1.66815476,1.96187324 C2.53541667,1.09998592 3.71755952,0.668746479 5.21428571,0.668746479 C6.00892857,0.668746479 6.73392857,0.770788732 7.38988095,0.974577465 C8.0452381,1.17866197 8.49910714,1.38629577 8.75059524,1.59659155 L9.24732143,1.9716338 C9.6577381,2.35347887 9.86309524,2.67587324 9.86309524,2.93911268 C9.86309524,3.20264789 9.70416667,3.56438028 9.3860119,4.02490141 C8.93571429,4.68329577 8.47232143,5.01190141 7.99553571,5.01190141 C7.7172619,5.01190141 7.37261905,4.88057746 6.96220238,4.61704225 C6.92261905,4.59101408 6.84613095,4.52505634 6.73363095,4.41976056 C6.62113095,4.31476056 6.51815476,4.22898592 6.42589286,4.16302817 C6.14761905,3.99207042 5.79315476,3.90629577 5.36309524,3.90629577 C4.9327381,3.90629577 4.575,4.00833803 4.29047619,4.21242254 C4.00535714,4.41650704 3.86309524,4.69956338 3.86309524,5.06129577 C3.86309524,5.42361972 4.03184524,5.71614085 4.36964286,5.93974648 C4.70744048,6.16364789 5.12767857,6.31508451 5.63125,6.39405634 C6.13422619,6.47302817 6.68392857,6.59488732 7.28005952,6.75933803 C7.87589286,6.92408451 8.42559524,7.12461972 8.92886905,7.36153521 C9.43184524,7.5984507 9.85267857,8.00987324 10.1901786,8.59521127 C10.5279762,9.18084507 10.6967262,9.90164789 10.6967262,10.7570282 C10.6967262,11.6132958 10.5247024,12.366338 10.1803571,13.0179296 C9.8360119,13.6695211 9.38571429,14.1729296 8.82946429,14.5281549 C7.75684524,15.2258873 6.6110119,15.5743099 5.39255952,15.5743099 C4.76994048,15.5743099 4.18095238,15.4985915 3.62470238,15.3471549 C3.06845238,15.1960141 2.61815476,15.008493 2.27380952,14.7845915 C1.57172619,14.3634085 1.08184524,13.9555352 0.803869048,13.5603803 L0.625297619,13.3432817 L0.625297619,13.3432817 Z" id="Shape" sketch:type="MSShapeGroup"></path>
                <path d="M17.6705357,8.46714085 L16.3791667,8.38787324 L16.3791667,11.1125493 C16.3791667,11.4680704 16.435119,11.724507 16.5479167,11.8824507 C16.6604167,12.0406901 16.8723214,12.119662 17.183631,12.119662 C17.4946429,12.119662 17.7333333,12.1294225 17.8988095,12.1495352 C18.0642857,12.1690563 18.239881,12.2314648 18.4252976,12.3370563 C18.7297619,12.5083099 18.8821429,12.9490141 18.8821429,13.6597606 C18.8821429,14.4891127 18.6967262,14.9960704 18.3258929,15.180338 C18.127381,15.2726197 17.9514881,15.3282254 17.7994048,15.3477465 C17.6470238,15.3675634 17.425,15.3776197 17.1339286,15.3776197 C15.7565476,15.3776197 14.710119,15.0685352 13.9952381,14.4494789 C13.2800595,13.8310141 12.922619,12.7845634 12.922619,11.3104225 L12.922619,8.38846479 C12.6708333,8.42809859 12.3991071,8.44791549 12.1080357,8.44791549 C11.8166667,8.44791549 11.5747024,8.33611268 11.3827381,8.11250704 C11.1904762,7.88860563 11.0946429,7.50705634 11.0946429,6.96726761 C11.0946429,6.42777465 11.127381,6.03646479 11.1940476,5.7924507 C11.2604167,5.54902817 11.3529762,5.3748169 11.4723214,5.26922535 C11.6839286,5.09826761 11.9491071,5.01249296 12.2669643,5.01249296 L12.922619,5.09146479 L12.922619,3.05801408 C12.922619,2.75543662 12.9324405,2.53183099 12.952381,2.38660563 C12.9723214,2.24197183 13.0348214,2.08402817 13.141369,1.91277465 C13.3130952,1.58387324 13.8232143,1.41912676 14.671131,1.41912676 C15.5714286,1.41912676 16.1077381,1.66284507 16.2800595,2.14969014 C16.3464286,2.36028169 16.3794643,2.69598592 16.3794643,3.15650704 L16.3794643,5.09146479 C16.9622024,5.03911268 17.4026786,5.01249296 17.7002976,5.01249296 C17.9985119,5.01249296 18.2235119,5.0225493 18.3758929,5.04207042 C18.5282738,5.06188732 18.703869,5.12459155 18.9026786,5.22959155 C19.2467262,5.40084507 19.4190476,5.90750704 19.4190476,6.74987324 C19.4190476,7.57922535 19.2401786,8.08588732 18.8824405,8.26985915 C18.6839286,8.36243662 18.5080357,8.41804225 18.3559524,8.43785915 C18.2035714,8.45738028 17.975,8.46714085 17.6705357,8.46714085 L17.6705357,8.46714085 Z" id="Shape" sketch:type="MSShapeGroup"></path>
                <path d="M23.7791667,3.04766197 C23.6797619,3.23873239 23.5041667,3.37360563 23.2526786,3.45257746 C23.0008929,3.5315493 22.666369,3.57088732 22.2494048,3.57088732 C21.8321429,3.57088732 21.497619,3.5315493 21.246131,3.45257746 C20.9943452,3.37360563 20.8190476,3.23547887 20.7196429,3.03790141 C20.6202381,2.84032394 20.5607143,2.66611268 20.5407738,2.51467606 C20.5208333,2.36353521 20.5107143,2.13667606 20.5107143,1.83350704 C20.5107143,1.53092958 20.5205357,1.30377465 20.5407738,1.15233803 C20.5604167,1.00119718 20.6166667,0.833197183 20.7095238,0.648929577 C20.8946429,0.293408451 21.4110119,0.115943662 22.2589286,0.115943662 C23.0934524,0.115943662 23.5964286,0.293704225 23.76875,0.648929577 C23.8744048,0.846211268 23.9375,1.02101408 23.9574405,1.17215493 C23.977381,1.32359155 23.9875,1.55074648 23.9875,1.85332394 C23.9875,2.15619718 23.9776786,2.38335211 23.9574405,2.53449296 C23.9380952,2.68592958 23.8785714,2.8571831 23.7791667,3.04766197 L23.7791667,3.04766197 Z M20.5110119,6.71023944 C20.5110119,6.40766197 20.5208333,6.18050704 20.5410714,6.02907042 C20.5607143,5.87792958 20.6169643,5.70312676 20.7098214,5.50584507 C20.8949405,5.1636338 21.4113095,4.99267606 22.2592262,4.99267606 C22.8949405,4.99267606 23.3449405,5.10447887 23.610119,5.32838028 C23.835119,5.51294366 23.9541667,5.79570423 23.9675595,6.17725352 C23.9806548,6.30887324 23.9875,6.49994366 23.9875,6.74987324 L23.9875,13.6597606 C23.9875,13.9626338 23.9776786,14.1897887 23.9574405,14.3409296 C23.9377976,14.492662 23.8747024,14.6668732 23.76875,14.8644507 C23.5964286,15.2069577 23.0863095,15.3776197 22.2389881,15.3776197 C21.4044643,15.3776197 20.8943452,15.1998592 20.7092262,14.8446338 C20.6160714,14.6470563 20.560119,14.4760986 20.5404762,14.331169 C20.5205357,14.186831 20.5104167,13.9561268 20.5104167,13.6402394 L20.5104167,6.71023944 L20.5110119,6.71023944 Z" id="Shape" sketch:type="MSShapeGroup"></path>
                <path d="M31.3973214,4.97285915 C32.7214286,4.97285915 33.8241071,5.47626761 34.7050595,6.48308451 C35.5857143,7.48990141 36.0258929,8.7173662 36.0258929,10.1648873 L36.0258929,13.6396479 C36.0258929,13.9425211 36.0160714,14.1696761 35.996131,14.3208169 C35.9761905,14.4722535 35.9196429,14.6402535 35.827381,14.8242254 C35.6416667,15.1797465 35.1252976,15.3572113 34.2776786,15.3572113 C33.3372024,15.3572113 32.7943452,15.1140845 32.6485119,14.6269437 C32.5690476,14.403338 32.5294643,14.0676338 32.5294643,13.6201268 L32.5294643,10.1453662 C32.5294643,9.60587324 32.3738095,9.18469014 32.0627976,8.8818169 C31.7514881,8.57953521 31.3342262,8.42780282 30.8113095,8.42780282 C30.2877976,8.42780282 29.8639881,8.58574648 29.539881,8.90192958 C29.2151786,9.21752113 29.0532738,9.63219718 29.0532738,10.145662 L29.0532738,13.6399437 C29.0532738,13.9428169 29.0434524,14.1699718 29.0232143,14.3211127 C29.0035714,14.4725493 28.9404762,14.6405493 28.8345238,14.8245211 C28.6622024,15.1800423 28.1520833,15.357507 27.3050595,15.357507 C26.4705357,15.357507 25.9604167,15.1800423 25.7752976,14.8245211 C25.6821429,14.6272394 25.6261905,14.4527324 25.6065476,14.3012958 C25.5866071,14.1498592 25.5764881,13.923 25.5764881,13.6201268 L25.5764881,6.63097183 C25.5764881,6.34170423 25.5863095,6.12105634 25.6065476,5.96961972 C25.6261905,5.81847887 25.6889881,5.65047887 25.7952381,5.46621127 C25.9806548,5.13730986 26.4904762,4.97256338 27.325,4.97256338 C28.1324405,4.97256338 28.6291667,5.124 28.8145833,5.42657746 C28.9467262,5.65047887 29.0133929,5.92022535 29.0133929,6.23611268 C29.066369,6.14412676 29.1854167,6.01250704 29.3708333,5.84125352 C29.55625,5.67029577 29.735119,5.53216901 29.9074405,5.42657746 C30.3574405,5.12429577 30.8541667,4.97285915 31.3973214,4.97285915 L31.3973214,4.97285915 Z" id="Shape" sketch:type="MSShapeGroup"></path>
                <path d="M43.4958333,8.46714085 L42.2044643,8.38787324 L42.2044643,11.1125493 C42.2044643,11.4680704 42.2604167,11.724507 42.3732143,11.8824507 C42.4857143,12.0406901 42.697619,12.119662 43.0089286,12.119662 C43.3199405,12.119662 43.558631,12.1294225 43.7241071,12.1495352 C43.8895833,12.1690563 44.0651786,12.2314648 44.2505952,12.3370563 C44.5550595,12.5083099 44.7074405,12.9490141 44.7074405,13.6597606 C44.7074405,14.4891127 44.5220238,14.9960704 44.1511905,15.180338 C43.9526786,15.2726197 43.7767857,15.3282254 43.6247024,15.3477465 C43.4723214,15.3675634 43.2502976,15.3776197 42.9592262,15.3776197 C41.5818452,15.3776197 40.5354167,15.0685352 39.8205357,14.4494789 C39.1053571,13.8310141 38.7479167,12.7845634 38.7479167,11.3104225 L38.7479167,8.38846479 C38.496131,8.42809859 38.2244048,8.44791549 37.9333333,8.44791549 C37.6419643,8.44791549 37.4,8.33611268 37.2080357,8.11250704 C37.0157738,7.88860563 36.9199405,7.50705634 36.9199405,6.96726761 C36.9199405,6.42777465 36.9526786,6.03646479 37.0193452,5.7924507 C37.0857143,5.54902817 37.1782738,5.3748169 37.297619,5.26922535 C37.5092262,5.09826761 37.7744048,5.01249296 38.0922619,5.01249296 L38.7479167,5.09146479 L38.7479167,3.05801408 C38.7479167,2.75543662 38.7577381,2.53183099 38.7776786,2.38660563 C38.797619,2.24197183 38.860119,2.08402817 38.9666667,1.91277465 C39.1383929,1.58387324 39.6485119,1.41912676 40.4964286,1.41912676 C41.3967262,1.41912676 41.9330357,1.66284507 42.1053571,2.14969014 C42.1717262,2.36028169 42.2047619,2.69598592 42.2047619,3.15650704 L42.2047619,5.09146479 C42.7875,5.03911268 43.2279762,5.01249296 43.5255952,5.01249296 C43.8238095,5.01249296 44.0488095,5.0225493 44.2011905,5.04207042 C44.3535714,5.06188732 44.5291667,5.12459155 44.7279762,5.22959155 C45.0720238,5.40084507 45.2443452,5.90750704 45.2443452,6.74987324 C45.2443452,7.57922535 45.0654762,8.08588732 44.7077381,8.26985915 C44.5092262,8.36243662 44.3333333,8.41804225 44.18125,8.43785915 C44.028869,8.45738028 43.8002976,8.46714085 43.4958333,8.46714085 L43.4958333,8.46714085 Z" id="Shape" sketch:type="MSShapeGroup"></path>
                <path d="M56.03125,8.93091549 C56.03125,9.74015493 55.8291667,10.3393944 55.4252976,10.7274507 C55.0214286,11.115507 54.5744048,11.309831 54.0842262,11.309831 L49.3761905,11.309831 C49.3761905,11.6783662 49.5946429,11.9880423 50.0318452,12.2379718 C50.46875,12.4881972 50.9059524,12.6133099 51.3428571,12.6133099 C52.1107143,12.6133099 52.7133929,12.5340423 53.1505952,12.3763944 L53.3690476,12.2971268 C53.6866071,12.152493 53.9514881,12.0800282 54.1636905,12.0800282 C54.5875,12.0800282 54.9511905,12.3763944 55.25625,12.9685352 C55.4282738,13.3237606 55.5145833,13.6269296 55.5145833,13.8765634 C55.5145833,15.0481268 54.1041667,15.6337606 51.2830357,15.6337606 C50.3026786,15.6337606 49.4318452,15.4657606 48.6705357,15.1300563 C47.9092262,14.7943521 47.316369,14.3500986 46.8925595,13.7975915 C46.0580357,12.7316197 45.6410714,11.5402394 45.6410714,10.2240423 C45.6410714,8.56592958 46.1806548,7.23997183 47.2598214,6.24587324 C48.3392857,5.2523662 49.6866071,4.75516901 51.3026786,4.75516901 C53.1434524,4.75516901 54.4943452,5.40025352 55.3553571,6.69012676 C55.8059524,7.37484507 56.03125,8.12167606 56.03125,8.93091549 L56.03125,8.93091549 Z M51.8395833,9.51329577 C52.3425595,9.51329577 52.5943452,9.303 52.5943452,8.88152113 C52.5943452,8.57923944 52.4782738,8.33552113 52.2467262,8.15095775 C52.014881,7.96698592 51.6833333,7.87470423 51.2532738,7.87470423 C50.8229167,7.87470423 50.3955357,8.04950704 49.9720238,8.3976338 C49.5479167,8.74664789 49.3360119,9.11873239 49.3360119,9.513 L51.8395833,9.513 L51.8395833,9.51329577 Z" id="Shape" sketch:type="MSShapeGroup"></path>
                <path d="M64.4345238,5.09116901 C64.6860119,5.17014085 64.8946429,5.30530986 65.0604167,5.49608451 C65.2258929,5.68715493 65.3089286,5.99298592 65.3089286,6.41416901 C65.3089286,6.83564789 65.1827381,7.29616901 64.93125,7.79632394 C64.6794643,8.29647887 64.3154762,8.54640845 63.8386905,8.54640845 C63.6,8.54640845 63.3717262,8.49405634 63.1529762,8.38846479 C62.9348214,8.28346479 62.6464286,8.2308169 62.2889881,8.2308169 C61.9315476,8.2308169 61.5967262,8.35592958 61.2857143,8.60585915 C60.9744048,8.85608451 60.8190476,9.15866197 60.8190476,9.51388732 L60.8190476,13.6600563 C60.8190476,13.9629296 60.8092262,14.1900845 60.7892857,14.3412254 C60.7693452,14.4929577 60.70625,14.667169 60.6002976,14.8647465 C60.4017857,15.2072535 59.885119,15.3779155 59.0508929,15.3779155 C58.414881,15.3779155 57.9580357,15.2661127 57.6800595,15.0422113 C57.4681548,14.8582394 57.3491071,14.5751831 57.322619,14.193338 L57.322619,13.6207183 L57.322619,6.69042254 C57.322619,6.38784507 57.3324405,6.16069014 57.3526786,6.00925352 C57.3723214,5.85811268 57.4285714,5.69011268 57.5214286,5.50584507 C57.7065476,5.15032394 58.2229167,4.97285915 59.0708333,4.97285915 C59.8654762,4.97285915 60.3622024,5.12429577 60.5607143,5.42687324 C60.70625,5.63746479 60.7791667,5.85485915 60.7791667,6.07846479 C60.8455357,5.98647887 60.941369,5.87467606 61.0672619,5.74276056 C61.1931548,5.61143662 61.4613095,5.43367606 61.8720238,5.20977465 C62.2824405,4.98616901 62.6434524,4.87407042 62.9547619,4.87407042 C63.2657738,4.87407042 63.527381,4.89092958 63.7395833,4.92346479 C63.9508929,4.95629577 64.1827381,5.01219718 64.4345238,5.09116901 L64.4345238,5.09116901 Z" id="Shape" sketch:type="MSShapeGroup"></path>
                <path d="M72.2217262,4.97285915 C73.5458333,4.97285915 74.6485119,5.47626761 75.5294643,6.48308451 C76.410119,7.48990141 76.8502976,8.7173662 76.8502976,10.1648873 L76.8502976,13.6396479 C76.8502976,13.9425211 76.8404762,14.1696761 76.8205357,14.3208169 C76.8005952,14.4722535 76.7440476,14.6402535 76.6517857,14.8242254 C76.4660714,15.1797465 75.9497024,15.3572113 75.1020833,15.3572113 C74.1616071,15.3572113 73.61875,15.1140845 73.4729167,14.6269437 C73.3934524,14.403338 73.353869,14.0676338 73.353869,13.6201268 L73.353869,10.1453662 C73.353869,9.60587324 73.1982143,9.18469014 72.8872024,8.8818169 C72.5758929,8.57953521 72.158631,8.42780282 71.6357143,8.42780282 C71.1122024,8.42780282 70.6883929,8.58574648 70.3642857,8.90192958 C70.0395833,9.21752113 69.8776786,9.63219718 69.8776786,10.145662 L69.8776786,13.6399437 C69.8776786,13.9428169 69.8678571,14.1699718 69.847619,14.3211127 C69.8279762,14.4725493 69.764881,14.6405493 69.6589286,14.8245211 C69.4866071,15.1800423 68.9764881,15.357507 68.1291667,15.357507 C67.2946429,15.357507 66.7845238,15.1800423 66.5994048,14.8245211 C66.50625,14.6272394 66.4502976,14.4527324 66.4306548,14.3012958 C66.4107143,14.1498592 66.4005952,13.923 66.4005952,13.6201268 L66.4005952,6.63097183 C66.4005952,6.34170423 66.4104167,6.12105634 66.4306548,5.96961972 C66.4502976,5.81847887 66.5130952,5.65047887 66.6193452,5.46621127 C66.8047619,5.13730986 67.3145833,4.97256338 68.1491071,4.97256338 C68.9568452,4.97256338 69.4535714,5.124 69.6389881,5.42657746 C69.771131,5.65047887 69.8377976,5.92022535 69.8377976,6.23611268 C69.8907738,6.14412676 70.0098214,6.01250704 70.1952381,5.84125352 C70.3806548,5.67029577 70.5595238,5.53216901 70.7318452,5.42657746 C71.1818452,5.12429577 71.6785714,4.97285915 72.2217262,4.97285915 L72.2217262,4.97285915 Z" id="Shape" sketch:type="MSShapeGroup"></path>
            </g>
        </g>
    </g>
</svg>