<?xml version="1.0" encoding="UTF-8" standalone="no"?>
<svg width="52px" height="52px" viewBox="0 0 52 52" version="1.1" xmlns="http://www.w3.org/2000/svg" xmlns:xlink="http://www.w3.org/1999/xlink" xmlns:sketch="http://www.bohemiancoding.com/sketch/ns">
    <!-- Generator: Sketch 3.3.3 (12081) - http://www.bohemiancoding.com/sketch -->
    <title>public</title>
    <desc>Created with Sketch.</desc>
    <defs></defs>
    <g id="Page-1" stroke="none" stroke-width="1" fill="none" fill-rule="evenodd" sketch:type="MSPage">
        <g id="public" sketch:type="MSArtboardGroup" fill="#505070">
            <path d="M26,52 C11.663,52 0,40.336 0,26 C0,11.663 11.663,0 26,0 C40.336,0 52,11.663 52,26 C52,40.336 40.336,52 26,52 L26,52 Z M42.694,43.206 C40.414,41.55 37.049,40.269 33.064,39.563 C31.878,39.352 31.023,38.298 31.074,37.111 C31.106,36.361 31.105,35.565 31.102,34.736 C31.102,33.579 31.677,32.463 32.286,31.282 C32.886,30.119 33.506,28.915 33.563,27.688 L33.573,27.485 L33.661,27.301 C34.374,25.822 34.783,24.357 34.783,23.283 C34.783,22.795 34.695,22.46 34.522,22.285 L34.152,21.913 L34.248,21.397 C34.351,20.849 34.446,20.284 34.542,19.706 C34.624,19.217 34.707,18.719 34.798,18.214 C35.526,14.172 34.181,11.514 30.8,10.313 C30.518,10.213 29.951,10.069 29.294,9.903 C27.203,9.372 24.236,8.619 22.208,7.373 C22.207,7.401 22.205,7.429 22.204,7.456 C22.128,8.941 22.068,10.115 21.169,10.518 C17.698,12.079 16.511,14.381 17.202,18.214 C17.292,18.719 17.375,19.217 17.457,19.706 C17.554,20.284 17.649,20.849 17.751,21.397 L17.848,21.913 L17.478,22.285 C17.305,22.46 17.217,22.795 17.217,23.283 C17.217,24.357 17.626,25.822 18.338,27.301 L18.427,27.485 L18.436,27.688 C18.492,28.89 19.097,30.047 19.681,31.167 C20.307,32.364 20.898,33.495 20.898,34.732 C20.894,35.565 20.893,36.361 20.926,37.111 C20.977,38.298 20.122,39.352 18.936,39.563 C14.951,40.269 11.586,41.55 9.306,43.207 C13.63,47.403 19.513,50 26,50 C32.486,50 38.37,47.403 42.694,43.206 L42.694,43.206 Z M26,2 C12.766,2 2,12.766 2,26 C2,32.026 4.249,37.526 7.931,41.746 C10.47,39.835 14.197,38.372 18.586,37.593 C18.796,37.556 18.936,37.393 18.928,37.197 C18.894,36.416 18.894,35.589 18.898,34.728 C18.898,33.986 18.417,33.066 17.908,32.093 C17.284,30.895 16.578,29.545 16.452,27.991 C15.655,26.286 15.217,24.621 15.217,23.283 C15.217,22.483 15.377,21.835 15.705,21.32 C15.63,20.9 15.558,20.472 15.485,20.036 C15.404,19.555 15.322,19.065 15.233,18.568 C14.391,13.889 15.931,10.783 20.078,8.819 C20.15,8.476 20.185,7.791 20.207,7.354 C20.277,5.976 20.324,5.065 21.145,4.742 C21.575,4.573 22.051,4.684 22.416,5.037 C23.893,6.469 27.727,7.441 29.786,7.964 C30.52,8.15 31.1,8.297 31.469,8.429 C35.786,9.962 37.668,13.563 36.767,18.568 C36.677,19.065 36.595,19.555 36.515,20.036 C36.442,20.472 36.37,20.9 36.295,21.32 C36.622,21.835 36.783,22.483 36.783,23.283 C36.783,24.621 36.345,26.286 35.548,27.991 C35.42,29.567 34.701,30.962 34.064,32.198 C33.569,33.158 33.102,34.064 33.102,34.732 C33.105,35.589 33.105,36.416 33.072,37.196 C33.064,37.393 33.204,37.556 33.413,37.593 C37.803,38.372 41.53,39.835 44.068,41.746 C47.75,37.526 50,32.026 50,26 C50,12.766 39.233,2 26,2 L26,2 Z" id="Shape" sketch:type="MSShapeGroup"></path>
        </g>
    </g>
</svg>