<?xml version="1.0" encoding="UTF-8" standalone="no"?>
<svg width="60px" height="34px" viewBox="0 0 60 34" version="1.1" xmlns="http://www.w3.org/2000/svg" xmlns:xlink="http://www.w3.org/1999/xlink" xmlns:sketch="http://www.bohemiancoding.com/sketch/ns">
    <!-- Generator: Sketch 3.3.3 (12081) - http://www.bohemiancoding.com/sketch -->
    <title>rate-stint-a</title>
    <desc>Created with Sketch.</desc>
    <defs></defs>
    <g id="Page-1" stroke="none" stroke-width="1" fill="none" fill-rule="evenodd" sketch:type="MSPage">
        <g id="rate-stint-a" sketch:type="MSArtboardGroup" fill="#505070">
            <path d="M58.998,33.999 L1,33.999 C0.447,33.999 0,33.551 0,32.999 L0,1 C0,0.448 0.447,0 1,0 L58.998,0 C59.55,0 59.998,0.448 59.998,1 L59.998,32.999 C59.998,33.551 59.55,33.999 58.998,33.999 L58.998,33.999 Z M57.997,2 L2,2 L2,31.999 L57.997,31.999 L57.997,2 L57.997,2 Z M4.999,8 C6.654,8 8,6.654 8,5 C8,4.448 8.447,4 8.999,4 L50.998,4 C51.55,4 51.998,4.448 51.998,5 C51.998,6.654 53.344,8 54.998,8 C55.55,8 55.998,8.448 55.998,9 L55.998,25 C55.998,25.552 55.55,26 54.998,26 C53.344,26 51.998,27.345 51.998,28.999 C51.998,29.552 51.55,29.999 50.998,29.999 L8.999,29.999 C8.447,29.999 8,29.552 8,28.999 C8,27.345 6.654,26 4.999,26 C4.447,26 3.999,25.552 3.999,25 L3.999,9 C3.999,8.448 4.447,8 4.999,8 L4.999,8 Z M29.999,6 C25.588,6 21.999,10.935 21.999,17 C21.999,19.553 22.64,21.899 23.706,23.768 C24.522,23.162 25.543,22.55 26.746,22.256 C26.745,22.086 26.745,21.911 26.745,21.732 C26.745,21.614 26.568,21.276 26.451,21.052 C26.219,20.607 25.935,20.063 25.856,19.413 C25.552,18.734 25.385,18.063 25.385,17.507 C25.385,17.198 25.437,16.923 25.539,16.682 C25.524,16.595 25.509,16.507 25.494,16.417 L25.402,15.878 C25.065,14.004 25.677,12.62 27.222,11.76 C27.224,11.704 27.226,11.647 27.229,11.592 C27.254,11.115 27.311,10 28.357,10 C28.616,10 28.927,10.134 29.113,10.315 C29.539,10.727 30.9,11.072 31.553,11.238 C31.852,11.314 32.091,11.377 32.229,11.426 C34.122,12.098 34.984,13.721 34.596,15.877 L34.503,16.417 C34.488,16.507 34.473,16.595 34.459,16.682 C34.561,16.923 34.612,17.198 34.612,17.507 C34.612,18.063 34.446,18.734 34.142,19.413 C34.062,20.07 33.773,20.63 33.538,21.088 C33.427,21.302 33.261,21.625 33.253,21.739 C33.253,21.914 33.253,22.087 33.251,22.256 C34.454,22.55 35.475,23.162 36.291,23.768 C37.357,21.899 37.998,19.553 37.998,17 C37.998,10.935 34.41,6 29.999,6 L29.999,6 Z M26.683,26.998 C26.83,27.091 26.978,27.175 27.128,27.255 C27.22,27.303 27.312,27.35 27.405,27.394 C27.532,27.455 27.66,27.512 27.789,27.563 C27.911,27.612 28.035,27.654 28.16,27.695 C28.271,27.731 28.383,27.768 28.495,27.798 C28.65,27.839 28.807,27.869 28.964,27.897 C29.054,27.913 29.144,27.934 29.235,27.946 C29.487,27.979 29.741,27.999 29.999,27.999 C30.256,27.999 30.511,27.979 30.762,27.946 C30.853,27.934 30.943,27.913 31.033,27.897 C31.191,27.869 31.348,27.839 31.502,27.798 C31.615,27.768 31.726,27.731 31.837,27.695 C31.962,27.654 32.086,27.612 32.208,27.563 C32.338,27.511 32.466,27.455 32.593,27.394 C32.686,27.35 32.778,27.303 32.869,27.255 C33.019,27.175 33.168,27.091 33.314,26.998 C33.366,26.965 33.416,26.93 33.467,26.896 C34.062,26.497 34.624,25.998 35.14,25.396 C34.418,24.856 33.508,24.319 32.497,24.14 C31.749,24.007 31.21,23.339 31.243,22.586 C31.254,22.319 31.254,22.035 31.253,21.738 C31.253,21.156 31.51,20.656 31.76,20.172 C31.95,19.802 32.147,19.42 32.162,19.105 C32.168,18.97 32.201,18.839 32.26,18.717 C32.48,18.26 32.612,17.807 32.612,17.507 C32.612,17.495 32.613,17.489 32.616,17.489 C32.443,17.264 32.372,16.975 32.425,16.694 C32.462,16.497 32.496,16.294 32.531,16.087 L32.628,15.522 C32.902,13.996 32.202,13.538 31.56,13.311 C31.459,13.275 31.281,13.232 31.061,13.177 C30.393,13.007 29.717,12.823 29.116,12.583 C29.022,12.914 28.842,13.202 28.473,13.368 C27.455,13.826 27.166,14.389 27.37,15.523 L27.467,16.087 C27.502,16.294 27.535,16.497 27.572,16.694 C27.624,16.971 27.557,17.255 27.39,17.478 C27.395,17.841 27.525,18.277 27.737,18.717 C27.796,18.839 27.829,18.97 27.836,19.105 C27.85,19.409 28.031,19.758 28.224,20.127 C28.469,20.594 28.745,21.124 28.745,21.735 C28.744,22.035 28.743,22.319 28.755,22.588 C28.787,23.339 28.248,24.007 27.5,24.14 C26.489,24.319 25.58,24.856 24.857,25.396 C25.372,25.998 25.935,26.497 26.529,26.896 C26.581,26.93 26.631,26.965 26.683,26.998 L26.683,26.998 Z M50.098,27.999 C50.497,26.043 52.042,24.499 53.998,24.1 L53.998,9.899 C52.042,9.501 50.497,7.956 50.098,6 L35.304,6 C38.118,8.302 39.998,12.366 39.998,17 C39.998,20.339 39.012,23.371 37.412,25.672 C37.389,25.72 37.378,25.771 37.347,25.815 C36.75,26.656 36.068,27.369 35.335,27.97 C35.324,27.979 35.314,27.991 35.304,27.999 L50.098,27.999 L50.098,27.999 Z M6,24.1 C7.956,24.499 9.5,26.043 9.899,27.999 L24.694,27.999 C24.683,27.991 24.674,27.98 24.664,27.972 C23.93,27.37 23.247,26.656 22.65,25.815 C22.619,25.77 22.608,25.719 22.584,25.671 C20.986,23.37 19.999,20.339 19.999,17 C19.999,12.366 21.879,8.302 24.694,6 L9.899,6 C9.5,7.956 7.956,9.501 6,9.899 L6,24.1 L6,24.1 Z M12.999,14 C14.654,14 15.999,15.345 15.999,17 C15.999,18.654 14.654,20 12.999,20 C11.345,20 9.999,18.654 9.999,17 C9.999,15.345 11.345,14 12.999,14 L12.999,14 Z M12.999,18 C13.551,18 13.999,17.551 13.999,17 C13.999,16.449 13.551,16 12.999,16 C12.448,16 11.999,16.449 11.999,17 C11.999,17.551 12.448,18 12.999,18 L12.999,18 Z M46.998,14 C48.652,14 49.998,15.345 49.998,17 C49.998,18.654 48.652,20 46.998,20 C45.344,20 43.998,18.654 43.998,17 C43.998,15.345 45.344,14 46.998,14 L46.998,14 Z M46.998,18 C47.549,18 47.998,17.551 47.998,17 C47.998,16.449 47.549,16 46.998,16 C46.447,16 45.998,16.449 45.998,17 C45.998,17.551 46.447,18 46.998,18 L46.998,18 Z" id="Shape" sketch:type="MSShapeGroup"></path>
        </g>
    </g>
</svg>