<?xml version="1.0" encoding="UTF-8" standalone="no"?>
<svg width="58px" height="54px" viewBox="0 0 58 54" version="1.1" xmlns="http://www.w3.org/2000/svg" xmlns:xlink="http://www.w3.org/1999/xlink" xmlns:sketch="http://www.bohemiancoding.com/sketch/ns">
    <!-- Generator: Sketch 3.3.3 (12081) - http://www.bohemiancoding.com/sketch -->
    <title>schedule-stint-a</title>
    <desc>Created with Sketch.</desc>
    <defs></defs>
    <g id="Page-1" stroke="none" stroke-width="1" fill="none" fill-rule="evenodd" sketch:type="MSPage">
        <g id="schedule-stint-a" sketch:type="MSArtboardGroup" fill="#505070">
            <path d="M45.001,54 C37.832,54 32.001,48.168 32.001,41 C32.001,33.832 37.832,28 45.001,28 C52.169,28 58.001,33.832 58.001,41 C58.001,48.168 52.169,54 45.001,54 L45.001,54 Z M45.001,30 C38.935,30 34.001,34.935 34.001,41 C34.001,47.066 38.935,52 45.001,52 C51.066,52 56.001,47.066 56.001,41 C56.001,34.935 51.066,30 45.001,30 L45.001,30 Z M51.001,42 L45.001,42 C44.448,42 44.001,41.553 44.001,41 L44.001,35 C44.001,34.447 44.448,34 45.001,34 C45.553,34 46.001,34.447 46.001,35 L46.001,40 L51.001,40 C51.553,40 52.001,40.447 52.001,41 C52.001,41.553 51.553,42 51.001,42 L51.001,42 Z M43.711,20.29 C43.89,20.48 44.001,20.74 44.001,21 C44.001,21.26 43.89,21.52 43.711,21.71 C43.521,21.89 43.26,22 43.001,22 C42.74,22 42.481,21.89 42.291,21.71 C42.11,21.52 42,21.26 42,21 C42,20.74 42.11,20.48 42.291,20.29 C42.67,19.92 43.33,19.92 43.711,20.29 L43.711,20.29 Z M37.711,20.29 C37.89,20.48 38.001,20.74 38.001,21 C38.001,21.26 37.89,21.52 37.711,21.71 C37.521,21.89 37.26,22 37.001,22 C36.74,22 36.481,21.89 36.291,21.71 C36.11,21.52 36.001,21.26 36.001,21 C36.001,20.74 36.11,20.48 36.291,20.29 C36.671,19.92 37.33,19.92 37.711,20.29 L37.711,20.29 Z M7.71,39.71 C7.52,39.9 7.26,40 7,40 C6.74,40 6.48,39.9 6.29,39.71 C6.11,39.52 6,39.26 6,39 C6,38.74 6.11,38.48 6.29,38.29 C6.67,37.92 7.33,37.92 7.71,38.29 C7.89,38.48 8,38.74 8,39 C8,39.26 7.89,39.52 7.71,39.71 L7.71,39.71 Z M7,28 C6.74,28 6.48,27.89 6.29,27.71 C6.11,27.52 6,27.26 6,27 C6,26.74 6.11,26.48 6.29,26.29 C6.66,25.92 7.33,25.92 7.71,26.29 C7.89,26.48 8,26.74 8,27 C8,27.26 7.89,27.52 7.71,27.71 C7.52,27.89 7.26,28 7,28 L7,28 Z M7.71,33.71 C7.52,33.89 7.26,34 7,34 C6.74,34 6.48,33.89 6.29,33.71 C6.11,33.52 6,33.26 6,33 C6,32.73 6.11,32.48 6.29,32.29 C6.66,31.92 7.34,31.92 7.71,32.29 C7.89,32.48 8,32.73 8,33 C8,33.26 7.89,33.52 7.71,33.71 L7.71,33.71 Z M13.71,39.71 C13.52,39.9 13.26,40 13,40 C12.74,40 12.48,39.9 12.29,39.71 C12.11,39.52 12,39.26 12,39 C12,38.74 12.11,38.48 12.29,38.29 C12.67,37.92 13.34,37.92 13.71,38.29 C13.89,38.48 14.001,38.74 14.001,39 C14.001,39.26 13.89,39.52 13.71,39.71 L13.71,39.71 Z M13,28 C12.74,28 12.48,27.89 12.29,27.71 C12.11,27.52 12,27.26 12,27 C12,26.74 12.11,26.48 12.29,26.29 C12.66,25.92 13.34,25.92 13.71,26.29 C13.89,26.48 14.001,26.73 14.001,27 C14.001,27.27 13.89,27.52 13.7,27.71 C13.52,27.89 13.26,28 13,28 L13,28 Z M13.71,33.71 C13.52,33.89 13.26,34 13,34 C12.74,34 12.48,33.89 12.29,33.71 C12.11,33.52 12,33.26 12,33 C12,32.73 12.11,32.48 12.29,32.29 C12.66,31.92 13.34,31.92 13.71,32.29 C13.89,32.48 14.001,32.74 14.001,33 C14.001,33.26 13.89,33.52 13.71,33.71 L13.71,33.71 Z M19.71,39.71 C19.52,39.9 19.26,40 19,40 C18.74,40 18.48,39.9 18.3,39.71 C18.11,39.52 18,39.26 18,39 C18,38.74 18.11,38.48 18.29,38.29 C18.67,37.92 19.34,37.92 19.71,38.29 C19.89,38.48 20.001,38.74 20.001,39 C20.001,39.26 19.89,39.52 19.71,39.71 L19.71,39.71 Z M19,28 C18.74,28 18.48,27.89 18.29,27.71 C18.11,27.52 18,27.27 18,27 C18,26.73 18.11,26.47 18.3,26.29 C18.66,25.92 19.34,25.92 19.71,26.29 C19.89,26.48 20.001,26.74 20.001,27 C20.001,27.26 19.89,27.52 19.71,27.71 C19.52,27.89 19.26,28 19,28 L19,28 Z M19.71,33.71 C19.52,33.89 19.26,34 19,34 C18.74,34 18.48,33.89 18.29,33.71 C18.11,33.52 18,33.26 18,33 C18,32.73 18.11,32.48 18.29,32.29 C18.66,31.92 19.34,31.92 19.71,32.29 C19.89,32.48 20.001,32.73 20.001,33 C20.001,33.26 19.89,33.52 19.71,33.71 L19.71,33.71 Z M25.71,39.71 C25.521,39.9 25.26,40 25,40 C24.74,40 24.48,39.9 24.29,39.71 C24.11,39.52 24,39.26 24,39 C24,38.74 24.11,38.48 24.29,38.29 C24.66,37.92 25.33,37.92 25.71,38.29 C25.89,38.48 26,38.74 26,39 C26,39.26 25.89,39.52 25.71,39.71 L25.71,39.71 Z M25.71,33.71 C25.521,33.89 25.26,34 25,34 C24.74,34 24.48,33.89 24.29,33.71 C24.11,33.52 24,33.26 24,33 C24,32.73 24.11,32.48 24.29,32.29 C24.66,31.92 25.34,31.92 25.71,32.29 C25.89,32.48 26,32.73 26,33 C26,33.26 25.89,33.52 25.71,33.71 L25.71,33.71 Z M25,22 C24.74,22 24.48,21.89 24.29,21.71 C24.11,21.52 24,21.26 24,21 C24,20.74 24.11,20.48 24.29,20.29 C24.66,19.93 25.33,19.92 25.71,20.29 C25.89,20.48 26,20.74 26,21 C26,21.26 25.89,21.52 25.71,21.71 C25.521,21.9 25.26,22 25,22 L25,22 Z M25.71,27.71 C25.521,27.89 25.26,28 25,28 C24.74,28 24.48,27.89 24.29,27.71 C24.11,27.52 24,27.26 24,27 C24,26.74 24.11,26.48 24.29,26.29 C24.67,25.92 25.34,25.92 25.71,26.29 C25.89,26.48 26,26.74 26,27 C26,27.26 25.89,27.52 25.71,27.71 L25.71,27.71 Z M49.001,26 C48.449,26 48.001,25.553 48.001,25 L48.001,16 L2,16 L2,43 C2,43.552 2.449,44 3,44 L29.001,44 C29.553,44 30.001,44.447 30.001,45 C30.001,45.553 29.553,46 29.001,46 L3,46 C1.346,46 0,44.654 0,43 L0,7 C0,5.346 1.346,4 3,4 L12,4 L12,3 C12,1.346 13.346,0 15,0 C16.655,0 18,1.346 18,3 L18,4 L32.001,4 L32.001,3 C32.001,1.346 33.346,0 35.001,0 C36.655,0 38.001,1.346 38.001,3 L38.001,4 L47.001,4 C48.655,4 50.001,5.346 50.001,7 L50.001,25 C50.001,25.553 49.553,26 49.001,26 L49.001,26 Z M16,3 C16,2.448 15.552,2 15,2 C14.449,2 14.001,2.448 14.001,3 L14.001,7 C14.001,7.552 14.449,8 15,8 C15.552,8 16,7.552 16,7 L16,3 L16,3 Z M36.001,3 C36.001,2.448 35.552,2 35.001,2 C34.449,2 34.001,2.448 34.001,3 L34.001,7 C34.001,7.552 34.449,8 35.001,8 C35.552,8 36.001,7.552 36.001,7 L36.001,3 L36.001,3 Z M48.001,7 C48.001,6.448 47.552,6 47.001,6 L38.001,6 L38.001,7 C38.001,8.655 36.655,10 35.001,10 C33.346,10 32.001,8.655 32.001,7 L32.001,6 L18,6 L18,7 C18,8.655 16.655,10 15,10 C13.346,10 12,8.655 12,7 L12,6 L3,6 C2.449,6 2,6.448 2,7 L2,14 L48.001,14 L48.001,7 L48.001,7 Z M31.001,22 C30.74,22 30.48,21.89 30.291,21.71 C30.111,21.52 30.001,21.26 30.001,21 C30.001,20.74 30.111,20.48 30.291,20.29 C30.671,19.92 31.33,19.92 31.71,20.29 C31.89,20.48 32.001,20.74 32.001,21 C32.001,21.26 31.89,21.52 31.71,21.71 C31.521,21.89 31.26,22 31.001,22 L31.001,22 Z M30.291,26.29 C30.671,25.92 31.34,25.92 31.71,26.29 C31.89,26.48 32.001,26.74 32.001,27 C32.001,27.26 31.89,27.52 31.71,27.71 C31.521,27.89 31.26,28 31.001,28 C30.74,28 30.48,27.89 30.291,27.71 C30.111,27.52 30.001,27.26 30.001,27 C30.001,26.74 30.111,26.48 30.291,26.29 L30.291,26.29 Z" id="Shape" sketch:type="MSShapeGroup"></path>
        </g>
    </g>
</svg>