<?xml version="1.0" encoding="UTF-8" standalone="no"?>
<svg width="50px" height="60px" viewBox="0 0 50 60" version="1.1" xmlns="http://www.w3.org/2000/svg" xmlns:xlink="http://www.w3.org/1999/xlink" xmlns:sketch="http://www.bohemiancoding.com/sketch/ns">
    <!-- Generator: Sketch 3.3.3 (12081) - http://www.bohemiancoding.com/sketch -->
    <title>schedule-stint</title>
    <desc>Created with Sketch.</desc>
    <defs></defs>
    <g id="Page-1" stroke="none" stroke-width="1" fill="none" fill-rule="evenodd" sketch:type="MSPage">
        <g id="schedule-stint" sketch:type="MSArtboardGroup" fill="#505070">
            <path d="M49,60 L1,60 C0.448,60 0,59.553 0,59 L0,55 L0,51 L0,7 C0,5.346 1.345,4 2.999,4 L12,4 L12,3 C12,1.346 13.346,0 15,0 C16.654,0 18,1.346 18,3 L18,4 L32,4 L32,3 C32,1.346 33.346,0 35,0 C36.654,0 38,1.346 38,3 L38,4 L47,4 C48.654,4 50,5.346 50,7 L50,43 C50,43 50,43 50,43.001 L50,55 L50,59 C50,59.553 49.552,60 49,60 L49,60 Z M16,3 C16,2.449 15.551,2.001 15,2.001 C14.449,2.001 14,2.449 14,3 L14,7 C14,7.552 14.449,8 15,8 C15.551,8 16,7.552 16,7 L16,3 L16,3 Z M36,3 C36,2.449 35.551,2.001 35,2.001 C34.449,2.001 34,2.449 34,3 L34,7 C34,7.552 34.449,8 35,8 C35.551,8 36,7.552 36,7 L36,3 L36,3 Z M48,7 C48,6.449 47.551,6 47,6 L38,6 L38,7 C38,8.655 36.654,10 35,10 C33.346,10 32,8.655 32,7 L32,6 L18,6 L18,7 C18,8.655 16.654,10 15,10 C13.346,10 12,8.655 12,7 L12,6 L2.999,6 C2.448,6 2,6.449 2,7 L2,14 L48,14 L48,7 L48,7 Z M48,16 L2,16 L2,50 L40,50 L40,43 C40,42.448 40.448,42 41,42 L48,42 L48,16 L48,16 Z M42,44 L42,48.586 L46.586,44 L42,44 L42,44 Z M48,45.414 L41.708,51.707 C41.615,51.799 41.505,51.872 41.382,51.923 C41.26,51.974 41.13,52 41,52 L2,52 L2,54 L48,54 L48,45.414 L48,45.414 Z M48,56 L2,56 L2,58 L48,58 L48,56 L48,56 Z M35,42 C34.448,42 34,41.553 34,41 L34,25.415 L31.707,27.707 C31.316,28.098 30.684,28.098 30.293,27.707 C29.902,27.317 29.902,26.684 30.293,26.293 L34.293,22.293 C34.579,22.006 35.008,21.919 35.383,22.077 C35.756,22.231 36,22.596 36,23 L36,41 C36,41.553 35.552,42 35,42 L35,42 Z M22,42 L18,42 C15.794,42 14,40.206 14,38 C14,37.448 14.448,37 15,37 C15.552,37 16,37.448 16,38 C16,39.103 16.897,40 18,40 L22,40 C23.103,40 24,39.103 24,38 L24,36.243 C24,35.716 23.786,35.201 23.414,34.828 L21.512,32.927 C21.266,32.974 21.014,33 20.757,33 L19,33 C18.448,33 18,32.553 18,32 C18,31.448 18.448,31 19,31 L20.757,31 C21.291,31 21.793,30.792 22.172,30.415 L23.414,29.172 C23.786,28.8 24,28.285 24,27.758 L24,26 C24,24.898 23.103,24 22,24 L18,24 C16.897,24 16,24.898 16,26 C16,26.553 15.552,27 15,27 C14.448,27 14,26.553 14,26 C14,23.794 15.794,22 18,22 L22,22 C24.205,22 26,23.794 26,26 L26,27.758 C26,28.812 25.572,29.842 24.828,30.586 L23.586,31.828 C23.527,31.887 23.458,31.929 23.397,31.984 L24.828,33.414 C25.572,34.159 26,35.189 26,36.243 L26,38 C26,40.206 24.205,42 22,42 L22,42 Z" id="Shape" sketch:type="MSShapeGroup"></path>
        </g>
    </g>
</svg>