<?xml version="1.0" encoding="UTF-8" standalone="no"?>
<svg width="31px" height="23px" viewBox="0 0 31 23" version="1.1" xmlns="http://www.w3.org/2000/svg" xmlns:xlink="http://www.w3.org/1999/xlink" xmlns:sketch="http://www.bohemiancoding.com/sketch/ns">
    <!-- Generator: Sketch 3.3.3 (12081) - http://www.bohemiancoding.com/sketch -->
    <title>sorting</title>
    <desc>Created with Sketch.</desc>
    <defs></defs>
    <g id="Page-1" stroke="none" stroke-width="1" fill="none" fill-rule="evenodd" sketch:type="MSPage">
        <g id="sorting" sketch:type="MSArtboardGroup" fill="#000000">
            <path d="M25.6311073,1.00348287 C25.6311073,0.449274586 25.1747251,-1.77635684e-15 24.6312584,-1.77635684e-15 L22.3664001,-1.77635684e-15 C21.8141988,-1.77635684e-15 21.3665512,0.447137373 21.3665512,1.00348287 L21.3665512,14.9404293 L16.9761643,14.9404293 C15.8680341,14.9404293 15.6107867,15.5796037 16.3877008,16.3542209 L22.786312,22.7339149 C23.1798244,23.1262639 23.8227656,23.1213469 24.2113465,22.7339149 L30.6099577,16.3542209 C31.3930885,15.5734053 31.1384891,14.9404293 30.0214942,14.9404293 L25.6311073,14.9404293 L25.6311073,1.00348287 Z M0.389112877,6.64577914 C-0.392151846,7.42659465 -0.138159081,8.05957069 0.976174194,8.05957069 L5.35609949,8.05957069 L5.35609949,21.9965171 C5.35609949,22.5507254 5.81139421,23 6.36433157,23 L8.60226177,23 C9.15909297,23 9.61049385,22.5528626 9.61049385,21.9965171 L9.61049385,8.05957069 L13.9904191,8.05957069 C15.0959089,8.05957069 15.3525433,7.42039633 14.5774805,6.64577914 L8.19411612,0.266085144 C7.80154138,-0.126263876 7.1601322,-0.121346941 6.77247721,0.266085144 L0.389112877,6.64577914 Z" id="Shape" sketch:type="MSShapeGroup"></path>
        </g>
    </g>
</svg>