<?xml version="1.0" encoding="UTF-8" standalone="no"?>
<svg width="36px" height="36px" viewBox="0 0 36 36" version="1.1" xmlns="http://www.w3.org/2000/svg" xmlns:xlink="http://www.w3.org/1999/xlink" xmlns:sketch="http://www.bohemiancoding.com/sketch/ns">
    <!-- Generator: Sketch 3.3.3 (12081) - http://www.bohemiancoding.com/sketch -->
    <title>stint-search</title>
    <desc>Created with Sketch.</desc>
    <defs></defs>
    <g id="Page-1" stroke="none" stroke-width="1" fill="none" fill-rule="evenodd" sketch:type="MSPage">
        <g id="stint-search" sketch:type="MSArtboardGroup" fill="#000000">
            <path d="M24.0926244,22.6415094 L23.5265866,22.0754717 C25.5437393,19.7392796 26.7581475,16.703259 26.7581475,13.3790738 C26.7581475,5.9897084 20.7684391,0 13.3790738,0 C5.9897084,0 0,5.9897084 0,13.3790738 C0,20.7684391 5.9897084,26.7581475 13.3790738,26.7581475 C16.703259,26.7581475 19.7392796,25.5437393 22.0754717,23.5368782 L22.6415094,24.102916 L22.6415094,24.7269474 C22.6415094,25.2803591 22.9608018,26.0476418 23.3488925,26.4349562 L32.2257216,35.2940317 C32.6163985,35.6839272 33.249765,35.6833397 33.6444207,35.2886839 L35.2886839,33.6444207 C35.681533,33.2515717 35.6813462,32.6138123 35.2940317,32.2257216 L26.4349562,23.3488925 C26.0450607,22.9582156 25.2818444,22.6415094 24.7206054,22.6415094 L24.0926244,22.6415094 Z M13.3790738,22.6415094 C8.26415094,22.6415094 4.11663808,18.4939966 4.11663808,13.3790738 C4.11663808,8.26415094 8.26415094,4.11663808 13.3790738,4.11663808 C18.4939966,4.11663808 22.6415094,8.26415094 22.6415094,13.3790738 C22.6415094,18.4939966 18.4939966,22.6415094 13.3790738,22.6415094 L13.3790738,22.6415094 Z" id="Shape" sketch:type="MSShapeGroup"></path>
        </g>
    </g>
</svg>