<?xml version="1.0" encoding="UTF-8" standalone="no"?>
<svg width="50px" height="55px" viewBox="0 0 50 55" version="1.1" xmlns="http://www.w3.org/2000/svg" xmlns:xlink="http://www.w3.org/1999/xlink" xmlns:sketch="http://www.bohemiancoding.com/sketch/ns">
    <!-- Generator: Sketch 3.3.3 (12081) - http://www.bohemiancoding.com/sketch -->
    <title>student</title>
    <desc>Created with Sketch.</desc>
    <defs></defs>
    <g id="Page-1" stroke="none" stroke-width="1" fill="none" fill-rule="evenodd" sketch:type="MSPage">
        <g id="student" sketch:type="MSArtboardGroup" fill="#505070">
            <path d="M45.3196321,18.71125 C45.138691,18.52125 45.0281158,18.26125 45.0281158,18.00125 C45.0281158,17.74125 45.138691,17.48125 45.3196321,17.29125 C45.701619,16.92125 46.3640646,16.92125 46.7470567,17.29125 C46.9269926,17.48125 47.038573,17.74125 47.038573,18.00125 C47.038573,18.26125 46.9269926,18.52125 46.7470567,18.71125 C46.5560633,18.89025 46.2947038,19.00125 46.0333444,19.00125 C45.771985,19.00125 45.5106255,18.89025 45.3196321,18.71125 L45.3196321,18.71125 Z M49.8914117,50.49025 C49.5707438,51.71125 48.5986878,52.62525 47.3542148,52.87725 C42.5632953,53.84625 34.7828261,55.00125 24.9235441,55.00125 C14.8541693,55.00125 7.24056801,53.86625 2.62656879,52.91425 C1.38109057,52.65725 0.414060673,51.73625 0.102439811,50.51025 C-0.209181051,49.28325 0.201957441,48.01525 1.17501871,47.19925 C4.51740377,44.39825 9.03289058,42.49825 14.5928099,41.55125 C14.9898752,41.36625 15.9548946,39.61725 15.3487418,37.49225 C14.9024203,36.65025 12.3370769,31.67825 11.9450378,27.98725 C9.61190224,26.29025 9.48624867,22.06925 9.48624867,21.19025 C9.48624867,19.91025 10.2944525,19.03325 10.8805007,18.47025 C10.8211922,18.16625 10.7769622,17.94825 10.7347426,17.74125 C10.6513086,17.33025 10.5759165,16.96025 10.4170903,16.08225 C10.2100133,15.28925 10.1466839,13.94325 10.8503439,13.07325 L10.8503439,13.07325 L10.8503439,7.35125 L3.62576601,5.98225 C3.15129812,5.89225 2.80851517,5.47925 2.80851517,4.99925 C2.80851517,4.51925 3.15129812,4.10725 3.62576601,4.01725 L24.7345611,0.01725 C24.8582042,-0.00575 24.9868735,-0.00575 25.1105166,0.01725 L46.2213222,4.01725 C46.2655522,4.02525 46.3017404,4.04925 46.3429548,4.06325 C46.3881901,4.07825 46.4314149,4.09225 46.4736345,4.11225 C46.546011,4.14825 46.6083352,4.19325 46.6686489,4.24325 C46.7018214,4.27125 46.7370044,4.29525 46.7661561,4.32725 C46.8244593,4.38925 46.8676841,4.46025 46.9078933,4.53525 C46.9259874,4.56925 46.9491077,4.59725 46.9631809,4.63225 C47.0094214,4.74725 47.038573,4.87025 47.038573,4.99925 L47.038573,5.00025 L47.038573,5.00125 L47.038573,15.08425 C47.038573,15.63725 46.5882306,16.08425 46.0333444,16.08425 C45.4784582,16.08425 45.0281158,15.63725 45.0281158,15.08425 L45.0281158,6.20825 L38.9967443,7.35125 L38.9967443,13.08625 C38.9967443,13.12025 38.9716136,13.15025 38.9665874,13.18325 C39.0037809,13.22425 39.0500214,13.26625 39.0801783,13.30625 C39.8411363,14.30825 39.4752331,15.77125 39.3938096,16.05425 L39.2751926,16.73725 C39.149539,17.43625 39.0932462,17.75125 38.9575404,18.46925 C39.5435887,19.03125 40.3527977,19.90925 40.3527977,21.19025 C40.3527977,22.05325 40.2281493,26.21525 37.896019,27.97225 C37.5110165,31.64525 34.9577358,36.59225 34.4882941,37.47625 C33.9635648,39.67425 34.8602287,41.36925 35.2773985,41.56125 C40.8976316,42.39425 45.4834844,44.28925 48.8550211,47.18225 C49.8130039,48.00425 50.2110744,49.27225 49.8914117,50.49025 L49.8914117,50.49025 Z M40.6603976,4.99925 L24.9225389,2.01725 L9.18568532,4.99925 L24.9225389,7.98125 L40.6603976,4.99925 L40.6603976,4.99925 Z M19.3947869,19.00125 C20.9589225,19.00125 22.3401066,19.79625 23.1523313,21.00125 L26.6947569,21.00125 C27.5069816,19.79625 28.8871604,19.00125 30.4523013,19.00125 C31.8927939,19.00125 33.1634028,19.68725 33.9927164,20.73425 L36.8938061,18.57025 C37.0938466,17.50625 37.1471237,17.21025 37.2969028,16.38425 L37.4376348,15.60225 C37.5683145,15.11325 37.5602727,14.62025 37.4758335,14.51125 C37.4788491,14.51525 37.4466818,14.51025 37.4004413,14.50625 C34.1264118,15.86025 26.7661281,16.40125 24.9235441,16.40125 C23.2930633,16.40125 15.6533261,15.83825 12.3702495,14.44625 C12.2647005,14.71725 12.2868155,15.28025 12.381307,15.66025 C12.5511906,16.58425 12.6245723,16.94425 12.7059958,17.34525 C12.7673148,17.65125 12.8346651,17.98525 12.944235,18.56325 L15.8543718,20.73425 C16.6826801,19.68725 17.9532891,19.00125 19.3947869,19.00125 L19.3947869,19.00125 Z M16.8817154,23.50125 C16.8817154,24.87925 18.0095819,26.00125 19.3947869,26.00125 C20.7799918,26.00125 21.9078583,24.87925 21.9078583,23.50125 C21.9078583,22.12325 20.7799918,21.00125 19.3947869,21.00125 C18.0095819,21.00125 16.8817154,22.12325 16.8817154,23.50125 L16.8817154,23.50125 Z M27.9392298,23.50125 C27.9392298,24.87925 29.0660911,26.00125 30.4523013,26.00125 C31.8375063,26.00125 32.9653728,24.87925 32.9653728,23.50125 C32.9653728,22.12325 31.8375063,21.00125 30.4523013,21.00125 C29.0660911,21.00125 27.9392298,22.12325 27.9392298,23.50125 L27.9392298,23.50125 Z M36.9862871,12.56825 L36.9862871,7.73225 L25.1105166,9.98225 C25.0491977,9.99425 24.9858683,9.99925 24.9225389,9.99925 C24.8602147,9.99925 24.7968853,9.99425 24.7345611,9.98225 L12.860801,7.73225 L12.860801,12.58025 C14.3465289,13.18925 20.1497135,14.40125 24.9235441,14.40125 C29.6420871,14.40125 35.0934417,13.29725 36.7983094,12.66825 C36.8586231,12.63025 36.9169264,12.59325 36.9862871,12.56825 L36.9862871,12.56825 Z M35.9277814,27.35825 C35.9438651,27.00825 36.1429003,26.69225 36.4515055,26.52525 C37.7502609,25.82425 38.3423405,23.26825 38.3423405,21.19025 C38.3423405,20.86525 38.1613993,20.57125 37.9281863,20.29825 L34.8773176,22.57425 C34.940647,22.87425 34.97583,23.18325 34.97583,23.50125 C34.97583,25.98225 32.9462734,28.00125 30.4523013,28.00125 C27.957324,28.00125 25.9287727,25.98225 25.9287727,23.50125 C25.9287727,23.33025 25.96094,23.16725 25.9790341,23.00125 L23.8670488,23.00125 C23.8861482,23.16725 23.9183155,23.33025 23.9183155,23.50125 C23.9183155,25.98225 21.888759,28.00125 19.3947869,28.00125 C16.8998095,28.00125 14.8712582,25.98225 14.8712582,23.50125 C14.8712582,23.18325 14.9064412,22.87425 14.9697706,22.57425 L11.9138757,20.29525 C11.6796574,20.56925 11.4967058,20.86425 11.4967058,21.19025 C11.4967058,22.95425 11.9932888,25.82825 13.3593944,26.51125 C13.6840833,26.67325 13.8951813,26.99625 13.9122701,27.35725 C14.0630544,30.56425 16.6173403,35.58625 17.1028657,36.51425 C21.0152153,40.01025 22.8457366,40.55525 23.4217326,40.63225 C23.7554685,40.50225 24.3304592,40.31425 25.0843807,40.31425 C25.8081452,40.31425 26.3841412,40.47925 26.7208928,40.59825 C27.6034835,40.26425 30.5558399,38.71025 32.7100447,36.54125 C33.1563662,35.69525 35.7759919,30.59925 35.9277814,27.35825 L35.9277814,27.35825 Z M16.7811925,41.95325 C17.2777754,43.10125 20.4512821,45.87625 24.9647585,45.87625 C29.4470727,45.87625 32.2838278,43.24925 33.0839898,41.98225 C32.733165,41.34725 32.4446644,40.50625 32.3491677,39.51325 C30.0250792,41.32925 27.429579,42.64425 26.6706314,42.64425 C26.4695857,42.64425 26.3228223,42.58725 26.2052105,42.54125 C26.031306,42.47325 25.6231832,42.31425 25.0843807,42.31425 C24.584782,42.31425 24.2339573,42.46025 24.0650789,42.53125 C23.9504828,42.57925 23.7936672,42.64425 23.5795535,42.64425 C21.9138897,42.64425 19.5948273,41.15825 17.5180251,39.49325 C17.4265493,40.47325 17.1360382,41.31925 16.7811925,41.95325 L16.7811925,41.95325 Z M47.5411873,48.69625 C44.4621721,46.05525 40.218097,44.31525 34.927579,43.52525 C34.7948888,43.50625 34.6652143,43.46325 34.5365451,43.41325 C33.1613924,45.25825 29.857206,47.87625 24.9647585,47.87625 C20.279388,47.87625 16.6887115,45.33825 15.3185849,43.39925 C15.1909209,43.45225 15.0622516,43.50025 14.9315719,43.52225 C9.72850876,44.40825 5.53570032,46.16025 2.47075836,48.72825 C2.08475058,49.05225 1.92793492,49.53425 2.05157804,50.02025 C2.17421593,50.50425 2.54212959,50.85425 3.0346916,50.95625 C7.55620978,51.88925 15.024053,53.00125 24.9235441,53.00125 C34.6159581,53.00125 42.2536849,51.86825 46.9531286,50.91725 C47.447701,50.81725 47.8186304,50.46925 47.9462944,49.98525 C48.071948,49.50325 47.9211637,49.02225 47.5411873,48.69625 L47.5411873,48.69625 Z M26.9340013,35.00125 L22.9130869,35.00125 C22.3582007,35.00125 21.9078583,34.55325 21.9078583,34.00125 C21.9078583,33.44925 22.3582007,33.00125 22.9130869,33.00125 L26.9340013,33.00125 C27.4888874,33.00125 27.9392298,33.44925 27.9392298,34.00125 C27.9392298,34.55325 27.4888874,35.00125 26.9340013,35.00125 L26.9340013,35.00125 Z" id="Shape" sketch:type="MSShapeGroup"></path>
        </g>
    </g>
</svg>