<?xml version="1.0" encoding="UTF-8" standalone="no"?>
<svg width="35px" height="35px" viewBox="0 0 35 35" version="1.1" xmlns="http://www.w3.org/2000/svg" xmlns:xlink="http://www.w3.org/1999/xlink" xmlns:sketch="http://www.bohemiancoding.com/sketch/ns">
    <!-- Generator: Sketch 3.3.3 (12081) - http://www.bohemiancoding.com/sketch -->
    <title>twitter-circle</title>
    <desc>Created with Sketch.</desc>
    <defs></defs>
    <g id="Page-1" stroke="none" stroke-width="1" fill="none" fill-rule="evenodd" sketch:type="MSPage">
        <g id="twitter-circle" sketch:type="MSArtboardGroup" fill="#33CCFF">
            <path d="M17.5,0 C7.83489583,0 0,7.83489583 0,17.5 C0,27.1651042 7.83489583,35 17.5,35 C27.1651042,35 35,27.1651042 35,17.5 C35,7.83489583 27.1651042,0 17.5,0 L17.5,0 Z M24.6184896,14.3354167 C24.6257812,14.4848958 24.6276042,14.634375 24.6276042,14.7802083 C24.6276042,19.3375 21.1622396,24.5893229 14.8221354,24.5893229 C12.8752604,24.5893229 11.0632813,24.0205729 9.53932292,23.0398437 C9.80729167,23.0726562 10.0825521,23.0854167 10.3614583,23.0854167 C11.9765625,23.0854167 13.4622396,22.5367187 14.6416667,21.6106771 C13.1341146,21.5815104 11.8617187,20.5861979 11.4223958,19.2190104 C11.6320313,19.2572917 11.8471354,19.2791667 12.0695313,19.2791667 C12.3830729,19.2791667 12.6893229,19.2372396 12.9773438,19.1588542 C11.4005208,18.8416667 10.2119792,17.4489583 10.2119792,15.7791667 L10.2119792,15.7372396 C10.6768229,15.9942708 11.2091146,16.1510417 11.7742187,16.1692708 C10.8481771,15.5494792 10.2411458,14.4958333 10.2411458,13.2981771 C10.2411458,12.6674479 10.4106771,12.0731771 10.7078125,11.5645833 C12.4085937,13.65 14.9460937,15.0208333 17.8117187,15.1684896 C17.7515625,14.9151042 17.7223958,14.6526042 17.7223958,14.3809896 C17.7223958,12.4796875 19.2645833,10.9338542 21.1695312,10.9338542 C22.159375,10.9338542 23.05625,11.353125 23.6851562,12.0239583 C24.4708333,11.8671875 25.2072917,11.5828125 25.8726562,11.1872396 C25.615625,11.9911458 25.0705729,12.6674479 24.3578125,13.0958333 C25.0559896,13.0101562 25.7195312,12.8260417 26.3375,12.5507812 C25.8763021,13.2416667 25.2911458,13.8505208 24.6184896,14.3354167 L24.6184896,14.3354167 Z" id="Shape" sketch:type="MSShapeGroup"></path>
        </g>
    </g>
</svg>